<svg id="Layer_1" data-name="Layer 1" xmlns="http://www.w3.org/2000/svg" viewBox="0 0 100 100"><path d="M44.94,18.42a28.35,28.35,0,0,0-13.41,4L34,25.06A26.16,26.16,0,0,1,42.54,22,30.26,30.26,0,0,0,44.94,18.42Z"/><path d="M72.63,70.7l-2.88-2.87a30.13,30.13,0,0,0,6.46-13H72.54A26.3,26.3,0,0,1,64.31,68l7.85,7.82c1.27-1.27,1.75-3.83.47-5.1Z"/><path d="M24.22,61.29a26.32,26.32,0,0,1-3.53-15.21H16.46l-6.85,0c0,1.8,1.48,3.94,3.28,3.94h3.55a30.14,30.14,0,0,0,4.64,14.41l3.14-3.16Z"/><path d="M46,78c-.24-2.13-.39-3.2-.47-3.74a29.35,29.35,0,0,1-5.08-.64,26.34,26.34,0,0,1-13.41-8.31l-7.82,7.86c1.28,1.27,3.84,1.74,5.11.47l2.48-2.49a30.12,30.12,0,0,0,13.45,6.71,32.68,32.68,0,0,0,5.78.61C46,78.28,46,78.12,46,78Z"/><path d="M56.73,72.62c-.67,1.39-1.43,3-2.21,4.82a26.46,26.46,0,0,0,8.73-3.87l-2.82-2.81A19.73,19.73,0,0,1,56.73,72.62Z"/><path d="M18.15,38a28.54,28.54,0,0,0-.9,3h4.33c.19-.69.4-1.37.65-2Z"/><path d="M24.12,28a30,30,0,0,0-5.71,9.31c1.49.18,3,.37,4.25.55A26.16,26.16,0,0,1,29.77,28l-2.83-2.81-5-5c-1.27,1.27-1.74,3.84-.47,5.11L24.12,28Z"/><path d="M44.16,21.78c.16-.21.34-.45.53-.73s.78-1.44,1.46-2.73a29.46,29.46,0,0,0-14.62,4.11L34,25.06A24.85,24.85,0,0,1,44.16,21.78Z"/><path d="M56.44,23.05A27.72,27.72,0,0,1,67,30.73l7.82-7.85c-1.27-1.27-3.84-1.75-5.11-.47l-3,3.06a31.43,31.43,0,0,0-11.18-6,21.3,21.3,0,0,1,.94,3.62Z"/><path d="M74.87,37.16A30.85,30.85,0,0,0,72.26,32l-2.51,2.52a28.11,28.11,0,0,1,1.39,2.67l3.73,0Z"/><path d="M81.18,46H76.86a30.58,30.58,0,0,0-1.6-7.72l-3.56.3A26.24,26.24,0,0,1,73.38,50H76.9v0h7.57C84.47,48.1,83,46,81.19,46Z"/><path d="M60.63,39.88c-1.05.19-2.09.42-3.13.67s-2,.47-2.9.79c-.57.2-1.15.46-1.71.72l-.89.41c-.19.08-.62.17-.62.44a.3.3,0,0,0,.21.36c2.64.6,5.29.54,7.84,1.42,1.87.64,6.1,2.35,6.73,4.54-3.8-2-8.38-2.23-12.64-2.69-1.33-.14-2.66-.33-4-.6a14.9,14.9,0,0,1-3.74-1,4.73,4.73,0,0,1-1.74-2.17A9.77,9.77,0,0,0,42,40.15a5.6,5.6,0,0,1,1,3.31c-.06,4.95-7.08,9.21-10.06,4a3.9,3.9,0,0,1-.19-.35s-1,2.71.5,4.21a3.23,3.23,0,0,0,2.27,1.08,6.77,6.77,0,0,1,1,.08,15,15,0,0,1,3.17.77A6.94,6.94,0,0,1,43,58.08,7.34,7.34,0,0,0,46,62.93a8.54,8.54,0,0,1,3.77,6.17c.17,3.37-.76,6.93-1.14,10.28a27.43,27.43,0,0,0-.38-5.19,16.63,16.63,0,0,0-1.11-4c-.65-1.49-2.28-3.72-3.8-4.4-.22-.09-.46-.19-.68-.26,0,0-6.12-.74-7.36-5.26a15.48,15.48,0,0,0,.13,4.22c-.07-.19-.13-.37-.21-.54a5.59,5.59,0,0,0-2.29-2.72,2,2,0,0,0-2.8.34s-1.32-2.77.21-3.24a13.85,13.85,0,0,1-.75-4.15,8.22,8.22,0,0,0-1.69-4.23,4.81,4.81,0,0,1-.68-1.26A12.38,12.38,0,0,1,27,41.6a.54.54,0,0,1,.77-.35c2,1,8.18,4.26,9.15,5,0,0,3.63.36,4.11-2.79a1.88,1.88,0,0,0-.47-1.71,3.56,3.56,0,0,1-.46-.62,4.55,4.55,0,0,1-.7-2.14c-3,1.82-8.95,1.28-8.95,1.28a32.44,32.44,0,0,1-3.69-.43,30.64,30.64,0,0,1-3.9-.91c-2.2-.67-9.36-2.19-12.46-2.72,0,0,15,2.13,16.58,2.3,1.1.12,3,.38,5.37.59l.73.06s3.06.17,4-.34a31.88,31.88,0,0,1-5.71-.24.11.11,0,0,1-.08-.17c.27-.58,1.51-2.95,3.83-3.49a9.13,9.13,0,0,0,4.62-2.33c.92-1,1.53-2.22,2.47-3.19A6.6,6.6,0,0,1,49,27.74,7.55,7.55,0,0,0,43.88,30a7.69,7.69,0,0,0-2.46,5.11,7.06,7.06,0,0,1,5.48-3.1,17.21,17.21,0,0,1,6.28.79c2.13,2.61,3.81,3.62,7.62,4,8.65,1,14.25,0,26.53.29C74.81,38.32,70,38.46,60.62,39.88Zm5.63,6.87a16.28,16.28,0,0,0-2-1.66c-.7-.53-1.42-1-2.15-1.54L62,43.46c.74-1,4.83-2.43,4.83-2.43,3.14-1.42,22.07-3.45,26.34-3.9a1.66,1.66,0,0,0,1.34-.58c-16.57-.14-26.83-.83-31.46-1.35A7.43,7.43,0,0,1,58,31.93l0,0a13.86,13.86,0,0,0-1.12-1.41l-3.28-3.81c1.33-2.31,1.11-3.06,1.11-3.06a22.67,22.67,0,0,0-1.93-6.08,29,29,0,0,0-1.9-3.85l-.18-.29-.15.31c-1.57,3.45-3.74,7.44-4.21,8.31-1.83,2.72-3,2.8-3,2.8a4.94,4.94,0,0,0-2.3,1c-.44.36-2.48,1.86-2.48,1.86-.71.62-3.28,2.22-3.28,2.22L32.32,31.8c-3.05,2-4.78,6.22-4.78,6.22L9.41,35.62a3,3,0,0,0-2.33.7,112.14,112.14,0,0,1,19.44,4.44c-1.22,5.48-.44,8.59.08,9.88a4.32,4.32,0,0,0,.56,1,1.68,1.68,0,0,1,.38,1.17V57.1c-2.64,2.28,3.4,8.32,3.4,8.32-.14-.48-.32-1.67-.4-2.18a1.25,1.25,0,0,1,.05-.61,1,1,0,0,1,.89-.66,2.11,2.11,0,0,1,1.21.23c1.7.85,2.82,3.91,3.12,4.82a5.47,5.47,0,0,1,.13.55c.32,1.75,3.74,3.35,3.74,3.35a7.27,7.27,0,0,1-.4-1.59c-.12-.9-.14-2.29,1.07-2.51,3.67-.68,6.2,3.64,6.9,6.45.15.62.41,2.77.6,4.49A28.51,28.51,0,0,1,48,81.57a41.72,41.72,0,0,0,.44,7.25C51,79,57.29,67.38,57.29,67.38c3.48-7.57,12.5-14.62,12.5-14.62l-5.18.49c-2.12.09-4.34,2.3-4.34,2.3l-5.45,5.59A4.1,4.1,0,0,1,51,62.56c-.29-.05-.58-.08-.88-.11a2.66,2.66,0,0,1-2.44-1.68,2.62,2.62,0,0,1,.08-2.14,2.23,2.23,0,0,0,.26-.83c.26-3.51-1-5-1-5A14.58,14.58,0,0,1,46.2,51a1.33,1.33,0,0,1,.43-1.63l0,0A2.26,2.26,0,0,1,47.82,49c1.49-.08,7.55-.13,20.63,2.64a9.44,9.44,0,0,0-1.55-4.13,6.41,6.41,0,0,0-.64-.74Z"/><path d="M54.49,38.65a3.45,3.45,0,0,1-1.6-.46,1,1,0,0,1-.37-.31.48.48,0,0,1-.08-.46c.1-.22.38-.29.62-.33A11,11,0,0,1,54.57,37a8,8,0,0,0-3.68,0c-.3.09-.64.25-.68.56a.58.58,0,0,0,.21.47,1.47,1.47,0,0,0,.48.25,8,8,0,0,0,3.59.42Z"/></svg>