<svg id="Layer_1" data-name="Layer 1" xmlns="http://www.w3.org/2000/svg" viewBox="0 0 1920 1080"><defs><style>.cls-1,.cls-3{fill:#fff;}.cls-2{fill:#eb6408;}.cls-3{fill-rule:evenodd;}</style></defs><polygon class="cls-1" points="1374.18 427.29 1442.16 427.29 1463.86 477.25 1470.49 498.19 1476.99 477.25 1498.44 427.29 1566.21 427.29 1500.87 541.53 1500.87 605.57 1440.22 605.57 1440.22 541.53 1374.18 427.29"/><path class="cls-2" d="M160,528.67c5.09-52.68,40.47-99.33,94.6-125.42,20.4-10.93,48.43-19.49,62.67-23.41,43.55-12,62.77-14,102.46-25.55s66.65-27,89.25-47.7c-11.55,41.67-41.68,70.35-86.23,91.08-34.8,15.86-55.76,21-92,32.57-35.81,11.27-50.54,15-82.12,28.43-30.35,13.64-59.09,28.92-84,63-2.37,3.39-4.66,7-4.66,7"/><path class="cls-2" d="M161,567.85c13.34-46.32,45-68.94,78-86.34,40-20,76.58-28.52,111.16-40,42.27-13.46,65.55-20.32,101.34-40.36,34.36-19.81,49-40.94,57.91-54.52-4.17,36.46-19.92,63.94-41.18,86.67-25.17,26.11-64.37,47.39-116.45,61.55-49.54,12.79-81.73,18.83-112,28.66-42.36,13.83-64.63,31.62-77.93,43.47a5.94,5.94,0,0,0-.81.83"/><path class="cls-1" d="M202.67,420c27.8-28.7,69.31-43.3,84.38-48.27V273.66H202.67Z"/><path class="cls-1" d="M383.23,346.24c34.32-8.42,57.36-14.65,84.37-28.31V273.66H383.23Z"/><path class="cls-1" d="M202.67,556.44c33.21-16.59,59.91-22.21,84.38-28.19V609.4H202.67Z"/><path class="cls-1" d="M383.23,503.45c28.68-11.27,57.3-21.63,84.37-48.45V609.41H383.23Z"/><path class="cls-1" d="M1093.41,605.69c-2.72-14-3.41-27.93-3.41-41.88V497.75c0-54.07-39.12-73.48-84.39-73.48-26.2,0-49,3.74-70.8,12.57l1,41.53c17-9.5,36.75-13.26,56.49-13.26,22.14,0,40.18,6.45,40.5,30.64a178,178,0,0,0-28.58-2.41c-32.66,0-91.55,6.49-91.55,60.61,0,38.44,31.32,55.78,66.37,55.78,25.18,0,42.2-9.84,56.15-32h.72c0,9.2,1,18.37,1.33,27.93ZM969.89,549.51c0-17,16.34-23.49,37.07-23.49,9.22,0,18.06.7,25.86,1,0,20.76-14.62,41.86-37.77,41.86-14.28,0-25.16-7.13-25.16-19.39"/><rect class="cls-1" x="1121.44" y="350.43" width="61.3" height="255.28"/><path class="cls-1" d="M1385.43,605.69c-2.72-14-3.41-27.93-3.41-41.88V497.75c0-54.07-39.12-73.48-84.41-73.48-26.21,0-49,3.74-70.76,12.57l1,41.53c17-9.5,36.75-13.26,56.49-13.26,22.12,0,40.15,6.45,40.5,30.64a178.45,178.45,0,0,0-28.6-2.41c-32.68,0-91.55,6.49-91.55,60.61,0,38.44,31.31,55.78,66.39,55.78,25.16,0,42.18-9.84,56.15-32h.68c0,9.2,1,18.37,1.36,27.93Zm-123.52-56.18c0-17,16.32-23.49,37.09-23.49,9.17,0,18,.7,25.86,1,0,20.76-14.64,41.86-37.79,41.86-14.3,0-25.16-7.13-25.16-19.39"/><rect class="cls-1" x="500.99" y="432.38" width="63.39" height="177.04"/><rect class="cls-2" x="202.47" y="664.09" width="1523.57" height="6.92"/><path class="cls-1" d="M595.84,609.58H657.1V534.69c0-38.1,12.95-55.46,34.72-55.46,17.36,0,24.49,15,24.49,35v95.3h61.28V534.69c0-38.1,12.93-55.46,34.71-55.46,17.36,0,24.51,15,24.51,35v95.3h61.26V505.09c0-48-11.56-76.91-62.63-76.91-25.18,0-48.63,10.2-62.93,34-9.54-23.15-30.31-34-55.5-34-27.88,0-52.42,11.22-64.67,36.75h-.66V432.27H595.84Z"/><path class="cls-1" d="M1728.79,605.69c-2.71-14-3.41-27.93-3.41-41.88V497.75c0-54.07-39.12-73.48-84.4-73.48-26.21,0-49,3.74-70.76,12.57l1,41.53c17-9.5,36.75-13.26,56.48-13.26,22.12,0,40.18,6.45,40.51,30.64a179.07,179.07,0,0,0-28.6-2.41c-32.69,0-91.52,6.49-91.52,60.61,0,38.44,31.28,55.78,66.35,55.78,25.17,0,42.18-9.84,56.16-32h.67c0,9.2,1,18.37,1.35,27.93Zm-123.54-56.18c0-17,16.34-23.49,37.11-23.49,9.18,0,18,.7,25.87,1,0,20.76-14.63,41.86-37.79,41.86-14.28,0-25.19-7.13-25.19-19.39"/><path class="cls-3" d="M1724.58,344.53a35.44,35.44,0,1,0-35.46-35.46,35.5,35.5,0,0,0,35.46,35.46m0-6.91c-14.87,0-26.86-11.95-26.86-28.55s12-28.56,26.86-28.56,26.8,12,26.8,28.56-12,28.55-26.8,28.55M1710.91,329h7.48V311.72h4.49l10.4,17.26h7.66l-10.81-17.52c6.6-.62,10.55-3.95,10.55-10.85,0-8.42-5.23-11.73-14.79-11.73h-15Zm7.48-34.42H1725c3.86,0,8.15.8,8.15,5.48,0,5.41-3.8,6-8.23,6h-6.56Z"/><path class="cls-1" d="M186.84,806.34l30.33-82.26H227l30.34,82.26H246.59l-24.49-70-24.49,70Zm14-28.29h43.29v9.27H200.83Z"/><path class="cls-1" d="M186.84,806.34l30.33-82.26H227l30.34,82.26H246.59l-24.49-70-24.49,70Zm14-28.29h43.29v9.27H200.83Z"/><polygon class="cls-1" points="326.58 806.29 326.58 724.07 335.92 724.07 379.94 792.93 377.57 792.54 377.57 724.07 387.35 724.07 387.35 806.29 377.89 806.29 333.49 737.6 336.37 738.51 336.37 806.29 326.58 806.29"/><polygon class="cls-1" points="326.58 806.29 326.58 724.07 335.92 724.07 379.94 792.93 377.57 792.54 377.57 724.07 387.35 724.07 387.35 806.29 377.89 806.29 333.49 737.6 336.37 738.51 336.37 806.29 326.58 806.29"/><rect class="cls-1" x="465.34" y="724.08" width="9.85" height="82.26"/><rect class="cls-1" x="465.34" y="724.08" width="9.85" height="82.26"/><polygon class="cls-1" points="595.17 780.94 625.52 724.07 637.14 724.07 637.14 806.36 625.52 806.36 625.52 740.21 626.34 743.83 599.31 794.92 591.02 794.92 563.99 744.95 564.81 740.21 564.81 806.36 553.19 806.36 553.19 724.07 564.81 724.07 595.17 780.94"/><polygon class="cls-1" points="595.17 780.94 625.52 724.07 637.14 724.07 637.14 806.36 625.52 806.36 625.52 740.21 626.34 743.83 599.31 794.92 591.02 794.92 563.99 744.95 564.81 740.21 564.81 806.36 553.19 806.36 553.19 724.07 564.81 724.07 595.17 780.94"/><path class="cls-1" d="M707.83,806.34l30.34-82.26H748l30.32,82.26H767.58l-24.49-70-24.51,70Zm14-28.29h43.28v9.27H721.81Z"/><path class="cls-1" d="M707.83,806.34l30.34-82.26H748l30.32,82.26H767.58l-24.49-70-24.51,70Zm14-28.29h43.28v9.27H721.81Z"/><path class="cls-1" d="M850.56,724.08h9.84v82.26h-9.84Zm5.78,73h47.08v9.27H856.34Z"/><path class="cls-1" d="M850.56,724.08h9.84v82.26h-9.84Zm5.78,73h47.08v9.27H856.34Z"/><path class="cls-1" d="M1042,724.08h9.85v82.26H1042Zm6.33,37h47.35v9.39h-47.35Zm42.1-37h9.85v82.26h-9.85Z"/><path class="cls-1" d="M1042,724.08h9.85v82.26H1042Zm6.33,37h47.35v9.39h-47.35Zm42.1-37h9.85v82.26h-9.85Z"/><path class="cls-1" d="M1177.47,724.08h9.85v82.26h-9.85Zm5.6,0h47.25v9.28h-47.25Zm0,36.77h41v9.28h-41Zm0,36.22h47.25v9.27h-47.25Z"/><path class="cls-1" d="M1177.47,724.08h9.85v82.26h-9.85Zm5.6,0h47.25v9.28h-47.25Zm0,36.77h41v9.28h-41Zm0,36.22h47.25v9.27h-47.25Z"/><path class="cls-1" d="M1295.58,806.34l30.33-82.26h9.85l30.31,82.26h-10.74l-24.49-70-24.51,70Zm14-28.29h43.29v9.27h-43.29Z"/><path class="cls-1" d="M1295.58,806.34l30.33-82.26h9.85l30.31,82.26h-10.74l-24.49-70-24.51,70Zm14-28.29h43.29v9.27h-43.29Z"/><path class="cls-1" d="M1435.32,724.08h9.85v82.26h-9.85Zm5.76,73h47.09v9.27h-47.09Z"/><path class="cls-1" d="M1435.32,724.08h9.85v82.26h-9.85Zm5.76,73h47.09v9.27h-47.09Z"/><path class="cls-1" d="M1543.81,724.08h58v9.28h-58Zm24.11,5h9.84v77.23h-9.84Z"/><path class="cls-1" d="M1543.81,724.08h58v9.28h-58Zm24.11,5h9.84v77.23h-9.84Z"/><path class="cls-1" d="M1660.41,724.08h11.46v82.26h-11.46Zm7.37,37h55.11v9.39h-55.11Zm49-37h11.46v82.26h-11.46Z"/><path class="cls-1" d="M1660.41,724.08h11.46v82.26h-11.46Zm7.37,37h55.11v9.39h-55.11Zm49-37h11.46v82.26h-11.46Z"/></svg>