<svg id="Layer_1" data-name="Layer 1" xmlns="http://www.w3.org/2000/svg" viewBox="0 0 100 100"><defs><style>.cls-1{fill:#fff;}</style></defs><path class="cls-1" d="M43.53,13.87A31.29,31.29,0,0,0,28.71,18.3l2.68,2.91a29.49,29.49,0,0,1,9.48-3.41A30.66,30.66,0,0,0,43.53,13.87Z"/><path class="cls-1" d="M74.13,71.65,71,68.48a33.19,33.19,0,0,0,7.14-14.33H74a29,29,0,0,1-9.1,14.49l8.69,8.65c1.4-1.41,1.92-4.25.51-5.65Z"/><path class="cls-1" d="M20.63,61.26a29.07,29.07,0,0,1-3.9-16.81H4.48c0,2,1.64,4.37,3.63,4.36H12a33.48,33.48,0,0,0,5.12,15.93l3.48-3.49Z"/><path class="cls-1" d="M44.71,79.68c-.26-2.35-.42-3.54-.52-4.13a33.21,33.21,0,0,1-5.62-.71,29.14,29.14,0,0,1-14.81-9.18l-8.65,8.68c1.41,1.4,4.25,1.93,5.65.52l2.74-2.75a33.29,33.29,0,0,0,14.86,7.41,36.24,36.24,0,0,0,6.4.68C44.75,80,44.73,79.86,44.71,79.68Z"/><path class="cls-1" d="M56.56,73.78c-.74,1.53-1.58,3.35-2.44,5.33a29.48,29.48,0,0,0,9.65-4.28l-3.12-3.1A22.67,22.67,0,0,1,56.56,73.78Z"/><path class="cls-1" d="M13.92,35.5a32.28,32.28,0,0,0-1,3.31h4.79q.32-1.14.72-2.25Z"/><path class="cls-1" d="M20.52,24.43a33.05,33.05,0,0,0-6.31,10.29c1.65.19,3.3.4,4.69.6a29.23,29.23,0,0,1,7.86-10.84l-3.12-3.1-5.57-5.54c-1.4,1.41-1.92,4.24-.51,5.65l3,2.94Z"/><path class="cls-1" d="M42.67,17.59c.18-.23.38-.5.59-.81.25-.46.86-1.59,1.6-3A32.67,32.67,0,0,0,28.71,18.3l2.68,2.91A27.46,27.46,0,0,1,42.67,17.59Z"/><path class="cls-1" d="M56.24,19a30.59,30.59,0,0,1,11.69,8.49l8.65-8.68c-1.41-1.4-4.25-1.93-5.65-.52l-3.37,3.39A34.66,34.66,0,0,0,55.2,15a23.21,23.21,0,0,1,1,4Z"/><path class="cls-1" d="M76.61,34.59a32.57,32.57,0,0,0-2.89-5.71L71,31.67a29.41,29.41,0,0,1,1.53,2.95l4.13,0Z"/><path class="cls-1" d="M83.59,44.3H78.81A33.92,33.92,0,0,0,77,35.78l-3.93.33A28.94,28.94,0,0,1,75,48.73h3.89v0l8.37,0c0-2-1.64-4.36-3.63-4.36Z"/><path class="cls-1" d="M60.87,37.59c-1.16.21-2.31.46-3.46.74s-2.15.52-3.2.88a17.32,17.32,0,0,0-1.9.79c-.31.15-.65.31-1,.45s-.68.2-.68.49a.32.32,0,0,0,.23.4c2.91.66,5.84.59,8.67,1.57,2.06.71,6.74,2.59,7.43,5-4.2-2.19-9.26-2.46-14-3-1.48-.16-3-.37-4.41-.67a16.74,16.74,0,0,1-4.13-1.13,5.2,5.2,0,0,1-1.93-2.4,10.7,10.7,0,0,0-2.29-2.87,6.34,6.34,0,0,1,1.11,3.66C41.29,47,33.54,51.73,30.24,46L30,45.57s-1.13,3,.56,4.65a3.54,3.54,0,0,0,2.51,1.19,7,7,0,0,1,1.12.09,15.78,15.78,0,0,1,3.49.85,7.68,7.68,0,0,1,3.7,5.36,8.09,8.09,0,0,0,3.24,5.36,9.42,9.42,0,0,1,4.16,6.81c.19,3.73-.84,7.66-1.26,11.37a30.53,30.53,0,0,0-.42-5.73,18.09,18.09,0,0,0-1.22-4.46c-.72-1.65-2.52-4.11-4.2-4.86a5.91,5.91,0,0,0-.76-.29s-6.76-.82-8.13-5.81A17.1,17.1,0,0,0,33,64.76c-.07-.21-.15-.41-.22-.6a6.29,6.29,0,0,0-2.54-3c-1.08-.65-2.44-.68-3.1.38,0,0-1.46-3.06.24-3.58a15.2,15.2,0,0,1-.83-4.59,9.08,9.08,0,0,0-1.87-4.67,5.12,5.12,0,0,1-.75-1.4,13.65,13.65,0,0,1-.23-7.8.6.6,0,0,1,.85-.39c2.18,1.13,9.05,4.71,10.12,5.54,0,0,4,.39,4.55-3.09a2.09,2.09,0,0,0-.53-1.89,5.74,5.74,0,0,1-.51-.68,5.23,5.23,0,0,1-.77-2.37c-3.31,2-9.89,1.42-9.89,1.42-1.36-.08-2.83-.28-4.08-.48a33.69,33.69,0,0,1-4.31-1c-2.43-.73-10.34-2.42-13.77-3,0,0,16.54,2.36,18.33,2.55,1.21.13,3.32.42,5.93.65l.8.06s3.39.19,4.45-.37a35.44,35.44,0,0,1-6.32-.27.12.12,0,0,1-.08-.18c.3-.65,1.67-3.27,4.24-3.87a9.93,9.93,0,0,0,5.1-2.57c1-1.09,1.69-2.45,2.73-3.52A7.31,7.31,0,0,1,48,24.17a8.4,8.4,0,0,0-5.68,2.55,8.46,8.46,0,0,0-2.72,5.65,7.76,7.76,0,0,1,6.06-3.43,18.86,18.86,0,0,1,6.94.87c2.35,2.88,4.21,4,8.42,4.48,9.56,1.09,15.75,0,29.32.32-13.84,1.26-19.14,1.41-29.51,3Zm6.23,7.59a20.82,20.82,0,0,0-2.19-1.83c-.78-.59-1.57-1.15-2.38-1.7l-.15-.1c.83-1.12,5.34-2.69,5.34-2.69,3.47-1.56,24.4-3.82,29.12-4.31a1.82,1.82,0,0,0,1.48-.64C80,33.76,68.66,33,63.55,32.42a8.23,8.23,0,0,1-5.63-3.61l0,0a14.5,14.5,0,0,0-1.24-1.57L53,23c1.47-2.55,1.23-3.38,1.23-3.38a24.49,24.49,0,0,0-2.14-6.72A30.68,30.68,0,0,0,50,8.65l-.21-.33-.15.35c-1.74,3.8-4.14,8.22-4.66,9.18-2,3-3.33,3.09-3.33,3.09A5.55,5.55,0,0,0,39.13,22c-.49.39-2.74,2.06-2.74,2.06-.78.68-3.62,2.44-3.62,2.44l-3.18,2.14c-3.38,2.24-5.29,6.87-5.29,6.87C20,35,8.35,33.43,4.25,32.89a3.3,3.3,0,0,0-2.57.77,123.79,123.79,0,0,1,21.49,4.91c-1.35,6-.48,9.48.09,10.91a4.86,4.86,0,0,0,.61,1.06,1.88,1.88,0,0,1,.43,1.29v4.8c-2.92,2.52,3.75,9.19,3.75,9.19-.15-.53-.35-1.85-.43-2.41a1.31,1.31,0,0,1,.05-.68,1.09,1.09,0,0,1,1-.72,2.27,2.27,0,0,1,1.33.25c1.88.94,3.12,4.33,3.45,5.33.06.2.1.41.14.61.36,1.93,4.13,3.7,4.13,3.7a8.89,8.89,0,0,1-.44-1.76c-.13-1-.15-2.53,1.19-2.77,4.06-.75,6.85,4,7.62,7.13.17.68.46,3.06.67,5a33,33,0,0,1,.19,4.22,46.55,46.55,0,0,0,.48,8C50.23,80.86,57.17,68,57.17,68,61,59.62,71,51.83,71,51.83l-5.73.54c-2.35.1-4.8,2.55-4.8,2.55l-6,6.17a4.53,4.53,0,0,1-4.19,1.57c-.32-.06-.65-.09-1-.12a3,3,0,0,1-2.7-1.86,2.9,2.9,0,0,1,.08-2.36A2.46,2.46,0,0,0,47,57.4c.3-3.88-1.06-5.57-1.06-5.57a18.82,18.82,0,0,1-1-2,1.46,1.46,0,0,1,.48-1.8l0,0a2.48,2.48,0,0,1,1.28-.4c1.65-.08,8.35-.14,22.8,2.91A10.29,10.29,0,0,0,67.8,46a7.88,7.88,0,0,0-.7-.83Z"/><path class="cls-1" d="M54.09,36.23a3.84,3.84,0,0,1-1.78-.5,1.49,1.49,0,0,1-.41-.34.56.56,0,0,1-.08-.51c.11-.25.42-.33.69-.37a13.28,13.28,0,0,1,1.66-.14c-1.85-.22-2.69-.41-4.06,0-.33.09-.71.27-.75.61a.62.62,0,0,0,.23.52,1.75,1.75,0,0,0,.52.28,9,9,0,0,0,4,.46Z"/></svg>