<svg id="Layer_1" data-name="Layer 1" xmlns="http://www.w3.org/2000/svg" viewBox="0 0 2022.75 254.57"><defs><style>.cls-1{fill:#fff;fill-rule:evenodd;}</style></defs><path class="cls-1" d="M250.11,238.4c-.71-.66-1.62-.22-2.75-.55v-.28h-1.64l-11.52-2.46v-.28l-2.46-.55V234h-.55v-.28h-.82v-.27l-1.65-.55v-.27h-.55v-.28l-1.64-.54c-.09-.19-.18-.37-.28-.55h-.54V231l-.83-.27-.27-.55h-.55l-.27-.55-.83-.27-.82-1.1h-.55l-3-3.29L215,221.67c-2.31-3.21-5.08-5.84-7.4-9L206,211.25v-.54l-1.92-1.65v-.55l-1.65-1.37v-.55L200.48,205v-.55L198.84,203v-.55l-1.92-1.64v-.55l-1.64-1.37v-.55l-1.92-1.65v-.54l-1.65-1.37v-.55l-1.92-1.65v-.55l-1.64-1.37v-.54l-1.92-1.65V188l-1.65-1.37V186l-1.91-1.64v-.55L181,182.47v-.55l-1.92-1.64v-.55h-.27l-.55-.83-.82-.54v-.55l-1.92-1.65v-.54h-.28l-.55-.83-.82-.55v-.54L172,172.05v-.55l-1.64-1.37v-.55l-1.92-1.64v-.55L166.76,166v-.55l-1.91-1.64v-.55l-1.65-1.37v-.55l-1.92-1.65v-.54l-1.64-1.37v-.55L158,155.88v-.55l-1.92-1.65v-.54l-1.64-1.38v-.54l-1.92-1.65V149h-.28l-.54-.82-.83-.55v-.55l-1.92-1.64v-.55l-.82-.55-.55-.82h-.27V143l-1.92-1.64v-.55l-1.64-1.37v-.55l-1.92-1.65v-.54l-1.65-1.37c-.57-.8-.43-1.09-1.37-1.65v-.55a24.07,24.07,0,0,0,6.58-1.09l2.47-.28v-.27h1.09v-.28H150v-.27h1.1v-.28h1.09v-.27h.83v-.27h.82v-.28l3.56-.82v-.27H158v-.28l1.65-.27v-.28h.54v-.27H161v-.27l1.09-.28v-.27h.83v-.28l1.64-.55v-.27h.55v-.27h.55v-.28h.55v-.27h.54v-.28h.55v-.27h.55v-.27h.55v-.28H169l.27-.55,1.65-.55v-.27l.82-.27.27-.55,1.1-.28v-.27l.82-.27.28-.55h.54l.55-.83h.55c.18-.27.37-.54.55-.82h.55l.55-.82H178c.19-.27.37-.55.55-.82l.83-.28,1.91-2.19h.55L184,112l1.09-.82v-.55l1.92-1.64v-.55l1.1-.82v-.55l.82-.55V106l.82-.55v-.55l.55-.27c.09-.27.18-.55.28-.82h.27v-.55l.55-.27v-.55l.55-.28.27-.82h.27l.55-1.64.55-.28v-.55h.28v-.54h.27v-.55h.27v-.55h.28v-.55H195v-.55h.28l.54-1.64h.28l.27-1.37h.28v-.55h.27v-.82h.27v-.55h.28l1.37-4.94h.27V85.15h.28v-.83h.27V83.23h.28l.27-2.47h.27V79.39h.28V77.74H201V76.1h.28V73.91h.27V71.16c.62-2.19.61-11.51,0-13.7l-.27-4.94H201l-.27-3.29h-.28V47.86h-.27V46.77h-.27v-1.1h-.28v-1.1h-.27V43.48h-.28v-.83h-.27v-.82h-.27V41h-.28L198,39.36h-.28v-.54h-.27V38h-.28v-.55h-.27v-.82h-.27c-.19-.55-.37-1.09-.55-1.64h-.28v-.55h-.27v-.55h-.27v-.55H195v-.55h-.27v-.54h-.28v-.55h-.27v-.55l-.55-.28-.27-1.09h-.28l-.27-.82-.55-.28v-.55l-.55-.27V27.3l-.82-.55V26.2l-.82-.54v-.55L188.7,24v-.55l-3.57-3.29c-.45-.55-.91-1.09-1.37-1.64h-.55l-1.09-1.37h-.55c-.09-.19-.18-.37-.28-.55H181l-.27-.55h-.55l-.28-.55h-.54c-.19-.27-.37-.55-.55-.82h-.55l-.28-.55-.82-.27v-.28l-1.09-.27c-.1-.18-.19-.37-.28-.55l-1.1-.27-.27-.55h-.55v-.28h-.55V11.4h-.54v-.27h-.55v-.28h-.55v-.27h-.55V10.3h-.55V10h-.55V9.76l-1.64-.55V8.93h-.82V8.66H167V8.38h-.82V8.11h-.55V7.84h-.82V7.56h-.55V7.29L152.23,3.72,139.62,1.53h-2.46V1.26h-2.47V1H131.4V.71h-4.11V.43h-7.4c-3.47-1-8.58,0-12.34,0L79,1,22.56.71C20.35.09,16.75.43,14.06.43L.08.16V15.79H.36v.27c10.06,0,19.46-.42,25.49,3.56h.55l.27.55h.55l.83,1.1h.54v.27l.55.28v.55l1.1.82.27,1.1.55.27c.09.46.18.91.28,1.37h.27v.55h.27c.1.55.19,1.1.28,1.64h.27v1.1h.28v1.1H33V32h.27v1.65h.28c.18,2.28.36,4.57.55,6.85h.27c.09,1.74.18,3.47.28,5.21v3h.27v6.86h.27v136.8c0,2,.18,4.71-.27,6.3v7.13h-.27v4.66h-.28v3.29h-.27v2.47H33.8v2.47c-.38,1.35-.69,3.35-1.09,4.66v1.37h-.28v.82h-.27c-.09.64-.18,1.28-.28,1.92h-.27l-.27,1.1h-.28l-.27,1.09-.55.28v.54c-5.06,7.31-17.63,7.48-30.16,7.41v11.51c0,1.16-.31,3.45.28,4.11v.28L2,253.47H7.48v-.27h7.41c1.84-.52,4.83-.22,7.12-.28h1.1v-.27h7.68l5.21-.27c2.85,0,6.68.39,9-.28H64c2,0,4.71-.17,6.3.28H82.05v.27h9v.27h8v.28h7.4v.27h6v.28h.83v-15.9c-9.47,0-18.29.23-24.4-3l-1.65-.55-.27-.55h-.55c-.18-.27-.37-.54-.55-.82h-.55v-.27l-1.09-.82v-.55l-1.1-.83v-.54l-.55-.28-.82-2.46H81.5v-.55h-.27v-1.1H81v-.82h-.28v-1.37h-.27V222h-.28v-1.37h-.27v-1.92h-.27v-2.2h-.28v-2.74H79v-3.29h-.28l-.27-11c-.49-1.75-.28-4.66-.28-6.86V137.78c4.6,0,8.83.08,12.07,1.37h.82v.28h.55v.27h.55l.27.55,1.1.27.82,1.1h.55l.27.55,1.37,1.1v.54l1.92,1.65V146l1.37,1.09v.55l1.37,1.1v.55l1.37,1.09v.55L104,152v.55l1.38,1.09v.55l.54.28v.27l.55.27v.55l1.1.82V157l1.1.83v.54l1.09.83v.54l1.1.83v.55l1.09.82v.55l1.1.82v.55l.55.27v.28l.55.27v.55l1.37,1.09v.55c.36.28.73.55,1.1.82v.55l1.09.83v.54l1.1.83V171l1.1.83v.55l1.09.82v.55l1.1.82v.55l1.09.82v.55l.55.27V177l.55.27v.55l1.1.82v.55l1.09.82v.55l1.1.82v.55l1.1.82v.55l1.09.82v.55l1.1.82V186l.55.28v.27l.55.28v.54l1.09.83v.54l.55.28v.27l.55.28v.55l1.1.82v.55l1.09.82v.55c.37.27.74.54,1.1.82v.55l1.1.82v.55l1.09.82V197l1.1.82v.55l1.37,1.1V200l1.1.83v.55l1.09.82v.55c.37.27.74.54,1.1.82v.55l1.1.82v.55l1.09.82v.55l1.1.82v.55l1.1.82v.55l1.09.82V211l1.1.82v.55l1.1.82v.55l1.09.82v.55l.55.28v.27l.55.27v.55l1.1.83v.54l.55.28v.27l.54.28v.54l1.1.83v.55l1.1.82V222l1.09.82v.55l1.1.82v.55l1.1.82v.55l1.09.82v.55l1.1.82v.55l1.1.82v.55l1.37,1.1v.55l1.09.82v.55l1.1.82v.55l1.1.82v.55l1.09.82v.55l1.1.82v.55l1.1.82V240l1.37,1.1v.54l1.09.83v.55l1.1.82v.55l1.1.82v.55l.55.27v.28l.54.27v.55l1.1.82v.55l1.37,1.1v.54l1.1.83v.54l.82.55a12.79,12.79,0,0,1,1.1,1.65c1.4-.14,3.16-.28,4.93-.28h3v-.27h8.22v-.28H232v.28l11.79.27c1.31,0,4.17-.39,4.93.28a4.43,4.43,0,0,0,1.65-.28v-11C250.38,241.35,250.69,239.05,250.11,238.4ZM138.25,112h-.55l-.27.55-1.64.55c-.1.18-.19.37-.28.55H135v.27l-1.09.28v.27H133v.27h-.54V115h-.83v.27h-.82v.28H130v.27h-1.1v.28h-1.09v.27h-1.1v.27h-1.1V117h-1.37c-1.41.43-3.51.67-4.93,1.09l-6.58.55v.28h-2.47v.27H107v.27h-3.56v.28l-6.58.27h-3c-1.84.52-4.82.22-7.13.28H85.62v.27H78.21V22.64c.37-1,.74-2,1.1-3h.28c.27-.36.54-.73.82-1.09,3.83-.69,9.07-.55,13.71-.55,2.2,0,5.1-.22,6.85.27h7.68l9.32,1.1v.27h1.37v.28l2.19.27v.28l1.92.27V21h.82v.27h.82v.27h.83v.28l1.37.27v.28l1.09.27v.27h.83v.28l1.64.55V24h.55v.28l1.1.27.27.55,1.1.27.27.55h.55l.27.55h.55l.28.55h.54c.19.27.37.55.55.82h.55l.82,1.1h.55l1.92,2.19,2.74,2.47v.54l1.1.83v.55l.82.54v.55l.55.28.27.82h.28v.55l.55.27.27.82h.27v.55h.28v.55h.27V41h.28v.55h.27v.55h.27v.54h.28v.55h.27c.19.55.37,1.1.55,1.65h.28v.82h.27v.55h.27l.28,1.64h.27v.82h.28v.83H152v.82h.27c.1.73.19,1.46.28,2.19h.27v1.1h.28v1.1h.27v1.37h.28v1.64h.27v1.92h.27v2.47h.28V66c.29,1,.66,7.1.27,8.49h-.27v3c-.09,1.46-.18,2.92-.28,4.39h-.27v1.92c-.4,1.39-.69,3.33-1.1,4.66v1.37l-2.19,6.85h-.27v.55H150V98h-.27c-.19.55-.37,1.1-.55,1.65h-.28l-.27,1.09-.55.28-.27,1.09-.55.28V103H147c-.1.27-.19.54-.28.82l-.55.27v.55l-1.09.82V106l-2.74,2.47c-.37.46-.74.91-1.1,1.37h-.55l-.55.82h-.55l-.54.82h-.55C138.44,111.65,138.34,111.83,138.25,112Z"/><path class="cls-1" d="M283.28.16l19.19.55c3.52,0,9.45-.54,12.33.27h4.12c3.57,0,9.68-.54,12.61.28H337L350.72,1,379.5.71c1.9-.54,5-.28,7.41-.28l11-.27v15.9c-9.17,0-18.15-.14-24.4,2.74v.27h-.55l-.27.55-1.1.28-.27.55h-.55l-.55.82h-.55l-1.09,1.37-.55.27v.55l-.82.55v.55l-.55.27v.55h-.28l-.27,1.1h-.27v.82h-.28v.55h-.27v1.09H365v.83h-.27v1.37h-.27v1.37h-.28v1.37h-.27c-.19,2.19-.37,4.39-.55,6.58h-.28v3h-.27v3.84s-.23,0-.27.55v4.93c-.63,2.25-.21,5.79-.28,8.5v1.1H362V179.45c0,3.58-.57,9.07.27,12.06v9.32h.28v5.49h.27v4.11h.27v3h.28v2.46h.27v2.2h.28V220l1.92,7.4h.27V228h.27v.54l.55.28v.55l.55.27v.55l.82.55v.55h.28l.82,1.09h.55l.82,1.1h.55l.27.55,1.65.55c6.26,3.33,15,3.31,24.67,3.28v15.91c-1.44-.07-2.89-.28-4.66-.28h-3.56v-.27h-7.41v-.28H374v-.27h-9.59v-.28h-2.75c-3.09,0-7.27.46-9.87-.27H334a27.69,27.69,0,0,0-6,.27H315.9v.28h-9.32v.27h-8.22v.28H291v.27h-3.56l-4.11.28V237.84c7.76,0,15.49.1,21.11-1.91h1.09v-.28H306v-.27h.82v-.28l1.1-.27v-.27l1.1-.28.27-.55h.55l.27-.55h.55l.82-1.09h.55l.28-.55h.27V231l1.1-.82v-.55l.55-.27.27-1.1h.27c.19-.55.37-1.1.55-1.65h.28c.55-2.28,1.09-4.56,1.64-6.85.09-1.37.18-2.74.28-4.11h.27v-2.47h.27v-3h.28V206c.42-1.49-.19-4.09.27-5.75.62-2.22.26-5.81.28-8.5v-1.65h.27V75.55c0-3.51.55-8.86-.27-11.79V53.62h-.28V47.86h-.27V43.75h-.28v-3h-.27V38h-.27V36.07h-.28V34.15H317V32.51c-.67-2.24-1.17-4.73-2.2-6.58v-.55l-.54-.27L314,24l-.82-.55v-.55l-1.37-1.09-.28-.55H311l-.55-.82h-.55l-.27-.55-1.1-.28-.28-.55h-.54V18.8c-6.29-2.89-15.2-2.77-24.4-2.74Z"/><path class="cls-1" d="M741.65,253.75h-4.11V.43a13.1,13.1,0,0,1,3.84-.27c.66,1.81.27,5.11.27,7.4V253.75Z"/><path class="cls-1" d="M431.87.43l46.6.28h15.35c2.45,0,5.7-.28,7.68.27h50.72L667.91.43v65.8H652.28L652,59.65h-.28V56.91h-.27v-2.2h-.28V53.07h-.27V51.42h-.27V49.78h-.28v-1.1h-.27V47.31c-.82-2.56-1.65-5.12-2.47-7.67h-.27c-.19-.55-.37-1.1-.55-1.65h-.28v-.55h-.27v-.55H646c-.19-.54-.37-1.09-.55-1.64-7.9-12.49-22.21-15.63-42.5-15.63h-6.58v-.27c-1.27-.36-6.21,0-7.12.27H584v.28h-2.47v.27h-1.64v.28h-1.37v.27h-.83V21h-1.09v.28h-.55v.27l-1.37.28-.28.54h-.55v.28a2.21,2.21,0,0,1-1.09.55,2.25,2.25,0,0,1-.55,1.09H572c-.1.46-.19.92-.28,1.37h-.27v171.9c0,12.85.09,22.65,5.48,30.15l2.19,1.92.83,1.1h.54l.28.55h.55l.27.54.82.28v.27l1.1.28v.27H584v.27l1.64.55V234l1.65.27v.28h.55v.27l1.92.27v.28h.82v.27h1.09v.28h1.37v.27l6.31.82v.28h2.19v.27h3v.27l8.22.28v15.63h-7.12v-.28h-1.1c-2.3-.05-5.28.25-7.13-.27H589v-.28h-9.59v-.27h-2.74c-2.85,0-6.68.39-9-.28H544l-57,1.38V238.12l8.22-.28v-.27h3v-.27h2.19V237h1.92v-.27H504v-.28h1.64v-.27h1.1v-.27h1.37v-.28h1.1v-.27H510v-.28l1.92-.27v-.27h.55v-.28l1.64-.27v-.28l1.65-.55v-.27h.54v-.27l1.1-.28v-.27l.82-.28.28-.54H519l.28-.55h.55l2.19-2.47,1.1-.82c6.67-9.44,5.21-27.27,5.21-43.32V29.77c0-2.44.15-4.85-.83-6.31l-1.09-.82-.28-.55h-.55l-.27-.55h-.55v-.27H524V21h-.55v-.27l-2.19-.27v-.28h-1.65c-2.66-.76-6.46-.55-9.87-.55H493c-13.72,0-25.46,1.66-33.45,7.41l-1.09,1.37L456,30.59v.55l-.82.55v.54l-.55.28v.55l-.55.27v.55h-.27v.55h-.28V35h-.27v.54H453v.55h-.28c-.18.55-.36,1.1-.55,1.65h-.27l-1.65,4.93v1.1H450v1.09h-.27v1.1h-.28v1.37h-.27v1.37h-.28V50.6h-.27v1.92h-.28v2.19H448V58h-.27c-.09,2.74-.19,5.49-.28,8.23H431.87Z"/><path class="cls-1" d="M880.65,107.63h-.28v-.55h-.27v-.55l-.55-.27-.27-1.1-.55-.28v-.54h-.28v-.55l-.55-.28-.27-.82h-.27v-.55h-.28v-.54l-.55-.28-.27-1.1-.55-.27-.27-1.1-.55-.27V98h-.27v-.55l-.55-.27c-.09-.37-.19-.73-.28-1.1l-.55-.27L873,95h-.27v-.55h-.28v-.55l-.55-.28-.27-1.09-.55-.28-.27-1.09-.55-.28v-.54H870v-.55l-.54-.28c-.1-.27-.19-.55-.28-.82h-.27v-.55h-.28v-.55l-.54-.27c-.1-.37-.19-.73-.28-1.1l-.55-.27-.27-1.1-.55-.27-.27-1.1-.55-.27c-.09-.37-.18-.73-.28-1.1l-.54-.27c-.1-.28-.19-.55-.28-.83h-.27l-.28-1.09-.54-.28c-.1-.36-.19-.73-.28-1.09l-.55-.28-.27-1.09-.55-.28-.27-1.09-.55-.28c-.09-.36-.19-.73-.28-1.1l-.54-.27a4.23,4.23,0,0,1-.83-2.19,10.09,10.09,0,0,0,4.39-1.92l1.64-.55.28-.55h.55l.27-.55c4.71-3.19,7.27-7.08,9.32-12.88v-1.1H876V53.07h.27V51.15c.26-.9.63-5.86.27-7.13h-.27V42.11q-.82-2.74-1.64-5.49h-.28c-.18-.55-.36-1.09-.55-1.64h-.27v-.55h-.28l-.27-1.1-.55-.27v-.55l-.55-.27v-.55l-.82-.55v-.55l-1.37-1.1V29l-1.92-1.65c-.18-.27-.36-.55-.55-.82h-.55l-.54-.82h-.55l-.55-.83h-.55l-.27-.54-1.65-.55v-.28H862v-.27h-.54v-.28l-1.65-.54v-.28H859v-.27h-.82v-.28h-.83v-.27h-.82V21h-1.37c-5.2-1.66-13.23-1.1-20-1.1H806.9v88.82h18.37V74.45h14.8c.09.28.19.55.28.83h.27v.55h.27v.54l.55.28.28,1.09.55.28.27,1.1.55.27.27,1.1.55.27.27,1.1.55.27c.09.37.19.73.28,1.1l.55.27.27,1.1.55.27.27,1.1.55.27.27,1.1.55.27.28,1.1.55.27.27,1.1.55.28.27,1.09.55.28.27,1.09.55.28.28,1.09.54.28V95h.28v.54l.55.28.27,1.09.55.28v.55h.27v.55l.55.27c.19.55.37,1.1.55,1.64l.55.28.27,1.1.55.27c.09.36.18.73.28,1.1l.54.27c.1.37.19.73.28,1.1l.55.27.27,1.1.55.27.27,1.1.55.27v.55h.28l.27.82h20.56C880.83,108.11,880.9,108,880.65,107.63ZM857.34,52.8h-.27v.55h-.27c-.1.36-.19.73-.28,1.09l-.55.28v.54l-.55.28-1.09,1.37h-.55l-.27.55H853v.27l-1.65.55v.27l-1.64.28v.27h-1.1v.28h-1.64c-1.51.44-4.08.27-6,.27H825.27V35.53h15.9c3.89,0,7.69-.1,10.42,1.09v.28l1.64.54c.09.19.18.37.28.55h.54l2.75,3,.27,1.1h.27v.82h.28v.82h.27v1.64h.28C858.67,47.13,857.78,51.78,857.34,52.8Z"/><path class="cls-1" d="M1019.91,19.9h17V53.07h.55c.42-1.59,2.5-3.32,3.56-4.39.37-.45.73-.91,1.1-1.37h.55l.55-.82h.54l.28-.55,1.1-.27v-.28l1.64-.55v-.27l2.47-.55v-.27l3-.28V43.2h2.47a21.18,21.18,0,0,1,8.5,1.37h.82v.27l1.65.55v.28h.54v.27l1.1.28.28.54h.54l.55.83h.55l1.92,2.19,1.1.82v.55l.82.55v.55l.55.27v.55l.54.27.28,1.1h.27l.28,1.1h.27l.28,1.37h.27l.27,1.64h.28v1.1h.27c.09.82.19,1.64.28,2.47h.27v2.46h.27v44.14h-16.72a15.9,15.9,0,0,1-.27-4.39V66.5h-.28l-.27-1.92h-.27v-.82h-.28l-.27-1.1c-.92-1-1.83-2-2.74-3h-.55l-.28-.55H1055a11.52,11.52,0,0,0-9.32-.55h-.82v.28l-1.1.27v.27h-.54l-.28.55h-.55l-.82,1.1H1041l-.27.82-1.1.82v.55l-.55.28-.27.82h-.27c-.1.46-.19.91-.28,1.37H1038v.55h-.28c-.18,1.09-.36,2.19-.55,3.29h-.27v38.93c-1.32.48-3.71.27-5.48.27h-11.24c-.76-2.08-.28-5.91-.28-8.5V19.9Z"/><path class="cls-1" d="M1386.72,19.9h18.1v88.82H1387c-.76-2.08-.28-5.91-.28-8.5V19.9Z"/><path class="cls-1" d="M1584.66,19.9h16.72V35h-16.72Z"/><path class="cls-1" d="M1218.67,25.11h16.45V44.84h11V56.08h-11v26.6c0,3.95-.54,9.09,1.1,11.51s6.14,2,10.14,1.92v12.34c-4.57.08-11.24,1-15.35-.28h-1.37v-.27l-2.47-.55v-.27l-1.65-.55v-.28H1225l-.28-.54h-.55l-.54-.83h-.55l-.82-1.09H1222v-.55l-.82-.55v-.55l-.55-.27v-.55h-.27l-.28-1.1h-.27c-.09-.55-.19-1.09-.28-1.64h-.27V97.21c-1-3.31-.55-8.46-.55-12.61V56.08h-8.77V44.84h8.77Z"/><path class="cls-1" d="M1548.75,25.11h16.44V44.84h10.7V56.08h-10.7V92c.31,1,1.12,1.74,1.38,2.74,1,.25,1.79,1.07,2.74,1.37h7.12v12.34c-3.6.06-10.28,1-13.7,0h-1.92v-.28h-1.1v-.27l-1.92-.28v-.27h-.55v-.27h-.82v-.28h-.55v-.27h-.54v-.28l-.83-.27-.27-.55h-.55l-1.64-1.92-.83-.55v-.54l-.55-.28c-2.3-3.64-1.91-9.68-1.91-15.62V56.08H1540V44.84h8.78Z"/><path class="cls-1" d="M1617.28,25.11h16.45V44.84h11V56.08h-11v26.6c0,3.95-.54,9.09,1.1,11.51s6.15,2,10.14,1.92v12.34c-4.57.08-11.24,1-15.35-.28h-1.37v-.27l-2.47-.55v-.27l-1.64-.55v-.28h-.55l-.28-.54h-.54l-.55-.83h-.55l-.82-1.09h-.28v-.55l-.82-.55v-.55l-.55-.27v-.55h-.27l-.28-1.1h-.27c-.09-.55-.18-1.09-.28-1.64h-.27V97.21c-1-3.29-.55-8.48-.55-12.61V56.08h-8.77V44.84h8.77Z"/><path class="cls-1" d="M1725.3,25.11h16.45V44.84h11V56.08h-11v25.5c0,2.68-.36,6.29.27,8.5l.27,3h.28v.55l.55.28v.55h.27l.27.54c.53.41.29-.28.83.55l1.64.28v.27H1753v12.34c-5.09.12-12.16.9-16.45-.55h-1.1v-.28l-1.64-.27v-.27l-1.65-.55v-.28h-.55l-.27-.54h-.55c-.71-.5-.45-1-1.65-1.38a3,3,0,0,0-.82-1.37H1728v-.54l-.55-.28v-.55h-.27c-.19-.54-.37-1.09-.55-1.64h-.28l-.27-1.65h-.27V96.93h-.28V94.19c-.77-2.75-.27-7.17-.27-10.42V56.08h-8.78v-11c2.14-.79,6.13-.29,8.78-.28Z"/><path class="cls-1" d="M944.8,64.59c-.09-.55-.19-1.1-.28-1.65h-.27c-.18-.55-.37-1.1-.55-1.64h-.27v-.55h-.28V60.2h-.27v-.55h-.28V59.1h-.27v-.55l-.55-.27-.27-1.1-.83-.55v-.54l-.54-.28v-.55l-1.37-1.09v-.55l-.83-.55-1.64-1.92h-.55c-.37-.45-.73-.91-1.1-1.37h-.54c-.1-.18-.19-.36-.28-.55h-.55c-.18-.27-.36-.55-.55-.82l-1.09-.27c-.09-.19-.18-.37-.28-.55L929.72,47v-.27h-.55v-.28l-1.64-.55v-.27h-.83v-.28h-.55v-.27h-.82v-.27h-.82v-.28l-1.92-.27V44l-2.74-.27v-.27l-9.6-.28c-.72.63-2.74.21-3.83.55l-6.86,2.19v.28l-1.64.55V47l-1.1.27-.27.55-1.1.28-.27.54h-.55l-.55.83h-.55c-.18.27-.36.55-.55.82h-.55l-1.64,1.92-2.47,2.19a51.7,51.7,0,0,0-5.48,9.6v.82h-.27v.82h-.28v.82H882v1.1h-.28l-.27,2.74h-.28v1.92h-.27v4.11c-.57,2.28.39,7.51,1.1,9.6v1.1h.27v.82h.28v.82h.27v.82h.27v.83h.28l.27,1.09h.28v.82h.27l.27,1.1h.28v.55l.55.27.27,1.1.55.27.27,1.1.83.55v.55l.82.55v.54l1.64,1.37v.55l.83.55.27.55h.55c.46.55.91,1.1,1.37,1.64h.55l.55.83h.54l.28.54h.55l.27.55H896l.27.55,1.65.55v.27h.55v.28H899v.27l1.65.55v.27l1.64.28a29.56,29.56,0,0,0,11.52,1.92h4.38v-.28h1.92v-.27l2.75-.27v-.28l1.91-.27v-.28h.83v-.27h.82v-.28H927v-.27h.82v-.27l1.64-.55v-.28H930v-.27l1.1-.27.27-.55h.55c.09-.19.18-.37.28-.55h.54c.1-.18.19-.37.28-.55h.55l.27-.55h.55l.82-1.09h.55l1.65-1.92L939,99.68v-.55l1.1-.82v-.55l.82-.55v-.55l.55-.27.27-.83h.28l.54-1.64.55-.28V93.1h.28l.27-1.1H944v-.82h.28v-.55h.27c.09-.46.19-.91.28-1.37h.27l1.65-6.86V80.21H947V76.1A31,31,0,0,0,944.8,64.59ZM930,79.39h-.27v2.47h-.28V83.5h-.27v1.1h-.27v1.09h-.28l-.27,1.65h-.28v.55h-.27v.82h-.27v.55h-.28v.55l-.55.27-.27,1.1-.82.55v.54L924,93.64l-.82,1.1h-.55l-.27.55h-.55c-.09.18-.18.37-.28.55l-4.93,1.64c-1.9.56-7.39-.34-8.5-.82v-.27l-1.1-.28v-.27l-1.64-.55-.55-.82h-.55l-.55-.83-1.37-1.09V92l-.82-.55V90.9l-.55-.27L900.39,89h-.28v-.54h-.27v-.83h-.28v-.54h-.27v-.83H899V85.15h-.27v-1.1h-.27V82.68h-.28V80.76c-.28-1-.65-6.62-.27-8h.27V70.89h.28V69.52h.27v-1.1H899V67.33h.28V66.5h.27V66h.28v-.83h.27v-.54h.28l.27-1.1.55-.28.27-1.09.82-.55V61l1.37-1.1c.19-.27.37-.54.55-.82h.55l.55-.82,1.1-.27.27-.55,4.11-1.37c4.34,0,8.07,0,10.69,1.64V58l.83.27.27.55h.55c.18.27.36.55.55.82l1.92,1.65v.54l.82.55.27,1.1.55.27v.55h.28v.82h.27l.27,1.1h.28v.82h.27v.82h.28V69h.27v1.1h.27v1.64h.28v2.74H930Z"/><path class="cls-1" d="M1012,66.5H995.51c-.23-6.12-7.85-11.55-14.8-9.32l-2.19.28v.27l-1.1.27v.28l-1.1.27-.27.55h-.55l-.27.55h-.55L973.58,61l-.55.27v.55l-.82.55-.27,1.1-.55.27v.55h-.27v.55h-.28v.82h-.27v.55h-.28v.82H970v.82h-.28V69h-.27v1.1h-.27c-.1,1.64-.19,3.29-.28,4.93h-.27l.27,6.85h.28l.54,4.12H970l.27,1.64h.28l.27,1.1h.28v.82l.54.27.28,1.1.55.28v.54c.5.71,1,.46,1.37,1.65a3.07,3.07,0,0,1,1.37.82v.28h.55l.27.54h.55v.28l1.64.55v.27h.83v.27h1.09v.28l5.76.27v-.27h1.64v-.28h.83v-.27h.82v-.27H990a11.72,11.72,0,0,0,6.31-9.6h16.45a36.83,36.83,0,0,1-1.37,6.58h-.28l-.27,1.65h-.28c-.18.54-.36,1.09-.55,1.64h-.27c-.18.55-.37,1.1-.55,1.65l-.55.27v.55l-.54.27v.55l-.83.55v.55l-1.64,1.37v.55l-.55.27V103h-.55l-1.37,1.65-.82.27-.28.55h-.54l-.28.55-1.1.27-.27.55-1.1.28v.27l-1.64.55v.27l-1.65.28v.27h-.82V109h-.82v.27h-.82v.27H992v.28h-1.37a30.94,30.94,0,0,1-12.89,0h-1.37l-6-1.92v-.28l-1.64-.54v-.28h-.55v-.27l-1.1-.28-.27-.54-1.1-.28-.55-.82h-.54l-.28-.55h-.55c-.45-.55-.91-1.1-1.37-1.64h-.55l-1.09-1.37-.55-.28v-.55l-1.37-1.09-.28-.83L958,98v-.55l-.55-.27-.28-.83h-.27l-.27-1.09L956,95l-.28-1.09h-.27v-.55h-.28l-.54-1.65h-.28l-.27-1.64h-.28v-.55h-.27v-.82h-.27v-1.1H953v-.82h-.27V85.42h-.28V84.05h-.27V82.4h-.28V79.66h-.27a17.74,17.74,0,0,1,.27-5.76c.1-1.46.19-2.92.28-4.38h.27c.09-.92.19-1.83.28-2.74H953c.09-.64.18-1.28.28-1.92h.27V64h.27v-.83h.28v-.55h.27v-.82h.28l.54-1.64h.28v-.55h.27c.19-.55.37-1.1.55-1.65,4.15-6.61,9.58-10.9,17.55-13.7H975c4-1.34,11.61-1.66,15.9-.28l2.2.28v.27h.82v.27h.82v.28h.82v.27h.55v.28h.83v.27l1.64.55v.27l1.1.28.27.55h.55l.27.54h.55l.28.55h.54l.83,1.1h.54l1.65,1.92.55.27v.55l1.09.82v.55l.83.55V55l.55.27.27,1.1.55.27.27,1.1h.28l.27,1.1h.27v.82A17.3,17.3,0,0,1,1012,66.5Z"/><path class="cls-1" d="M1125.19,95.56l-1.65.55v.28H1123v.27h-.82v.27l-3,.28v.27h-3.57v-.27l-3-.28v-.27l-1.65-.27v-.28l-1.64-.55v-.27h-.55l-.28-.55h-.54c-.19-.27-.37-.55-.55-.82h-.55v-.28l-1.1-.82v-.55l-1.09-.82V90.9l-.55-.27v-.55h-.28v-.55h-.27V89h-.28v-.54H1103v-.55h-.27c-.1-.55-.19-1.1-.28-1.65a13.88,13.88,0,0,1-1.09-4.66h45.78c0-17.79-5.65-28.61-16.72-35.36l-1.38-.28v-.27l-1.09-.28v-.27h-.82v-.27h-.83v-.28h-.82V44.3h-1.1V44h-1.09v-.27h-1.65c-3.94-1.15-10.32-.58-13.7.55h-1.1v.27H1106v.28h-.83v.27h-.82v.27l-1.1.28v.27h-.82v.28h-.55v.27h-.54c-.1.18-.19.37-.28.55l-1.64.55v.27l-.83.28-.27.54h-.55l-.55.83c-5.09,3.61-8.69,9.22-11,15.62v1.1H1086v1.1h-.27v1.09h-.27v1.37h-.28v1.92h-.27V75h-.28v3.57h.28v3.29h.27v1.92h.28v1.37h.27v1.37l1.92,5.75h.27c.19.55.37,1.1.55,1.65h.27v.55h.28l.27,1.09.55.28v.55l.55.27v.55h.27c.1.27.19.55.28.82l.55.28v.54l1.37,1.1v.55l.82.55,1.64,1.92h.55l.83,1.09.82.28.27.54h.55l.27.55,1.1.28.27.55,6.31,2.74h1.1v.27h.82v.28h1.37v.27h1.37v.27h2.19c3.61,1,10.7.1,13.44-.82h1.09V109h.83v-.28h.82v-.27h.82v-.28l1.1-.27v-.27h.82v-.28l1.1-.27v-.28h.55l.27-.54,1.1-.28.27-.55h.55c.18-.27.36-.55.55-.82h.54c.28-.36.55-.73.83-1.1h.55l.54-.82,1.92-1.64v-.55l1.1-.82v-.55l.55-.28.27-.82h.28l.27-1.1.55-.27c.27-.82.55-1.64.82-2.47h.28v-.55h.27l1.1-4.11h-16.73A11.81,11.81,0,0,1,1125.19,95.56ZM1102.71,66l.27-1.65h.27v-.55h.28l.27-1.09.55-.28v-.55l.55-.27V61l1.64-1.37c.19-.27.37-.55.55-.82h.55c.09-.18.18-.37.28-.55h.54l.28-.55,1.37-.27v-.28h.55v-.27h1.09v-.28h1.1v-.27h3v-.27a.73.73,0,0,1,.82.27h2.47v.27h1.09v.28h.82v.27l1.1.28v.27l1.65.55c2.87,1.88,5.78,6.69,5.75,11.51h-28A10.24,10.24,0,0,1,1102.71,66Z"/><path class="cls-1" d="M1205.79,64.31h-15.08c-.36-4.25-2.54-7.11-5.76-8.5h-.82v-.27H1183v-.28h-1.64V55a16.35,16.35,0,0,0-5.49.27h-1.64v.28h-1.1v.27h-.82v.27l-1.64.55v.28h-.55l-1.1,1.37-.55.27v.55h-.27v.55H1168a10.34,10.34,0,0,0-.27,3.84c1.57,4.32,10.09,4.62,14.8,6h1.65v.27h1.37v.28l2.47.27v.27h1.09v.28h1.1v.27h1.1v.28l1.64.27V72l2.47.54v.28l1.37.27v.28l1.1.27v.27l1.09.28.28.55h.54V75l.83.28.27.54h.55l1.1,1.37,1.64,1.37v.55l.55.28.27.82h.28v.55h.27l.28,1.09h.27c.18.83.37,1.65.55,2.47h.27v1.37c.35,1.15,1,4.57.55,6.31h-.27v1.92l-1.65,4.93-.55.28-.27,1.09-.55.28v.55l-.82.54v.55l-1.92,1.65-.27.54h-.55l-.55.83-.82.27-.28.55-1.09.27-.28.55-1.09.28v.27l-1.1.27v.28l-1.37.27v.28l-1.65.27V109l-1.92.27v.27h-1.37v.28h-1.37v.27h-2.19v.28h-2.74c-2.36,0-5.51.26-7.4-.28h-1.92v-.27h-1.65v-.28h-1.37v-.27h-1.1V109h-1.09l-6.31-2.75-.27-.54-1.1-.28-.27-.55-.82-.27-.83-1.1h-.55l-1.09-1.37-.55-.27v-.55l-1.1-.82V100l-.55-.28v-.54l-.54-.28V98.3H1154v-.54h-.27v-.55h-.28v-.55h-.27l-.27-1.1h-.28v-.82h-.27a35.32,35.32,0,0,1-1.37-6.58c1.25-.46,3.51-.27,5.21-.27h10.41c.8,4.62,3.11,8,6.86,9.59l4.93,1.1h4.39V98.3h1.92V98l2.19-.27v-.28h.55v-.27h.82l.27-.55h.55l.28-.55h.55v-.27L1191,95l.28-1.09h.27v-.55h.27c.1-1.1.19-2.19.28-3.29-1.7-5.33-8.35-5.2-13.71-6.85l-2.74-.28v-.27l-2.74-.28c-2.05-.63-4.42-1.17-6.31-1.92l-1.64-.27v-.27h-.55v-.28h-.82v-.27l-1.65-.55v-.28l-1.09-.27-.28-.55-1.09-.27-.55-.82h-.55l-1.65-1.92-.54-.28V73.9l-.55-.27-.28-.82h-.27l-.28-1.1h-.27l-.27-1.1H1154v-.82h-.27V69h-.28V67.6c-.34-1.14-1.05-4.52-.54-6.31h.27l.27-3.29h.28v-.82h.27v-.82h.28v-.82h.27V55h.27c.19-.55.37-1.1.55-1.65l.55-.27v-.55l.82-.55v-.55l1.92-1.64.83-1.1h.54l.55-.82h.55l.27-.55,1.1-.27.27-.55h.55v-.27h.55v-.28h.82v-.27h.55v-.28h.82v-.27h.55v-.28h.83v-.27h1.09V44.3h1.1V44h1.1v-.27h1.64v-.28h2.19c2.58-.72,8.41-.41,10.69.28L1188,44v.28h1.09v.27h.83v.27h.82v.28h.82v.27h.82v.28l1.65.55v.27h.55v.27l1.09.28.28.55h.55v.27l.82.27.27.55h.55l1.64,1.92L1201.4,52v.55l.55.27.27.83h.28v.55l.54.27.28,1.1h.27l.28,1.09h.27v.83A16.37,16.37,0,0,1,1205.79,64.31Z"/><path class="cls-1" d="M1295.16,91.45h-.28l-.27,1.1-1.1.82v.55l-.54.27v.28c-5.41,4-13.72,3.87-19.2,0l-.54-.83L1271.31,92v-.55l-.55-.27v-.55l-.55-.27c-.18-.55-.36-1.1-.55-1.65h-.27v-.55h-.28v-.82h-.27v-.55h-.27v-1.1h-.28v-.82H1268c-.33-1,0-2.33-.55-3v-.28h46.06c0-16.75-5.56-28.33-15.9-34.81l-1.1-.28v-.27l-1.65-.55v-.28h-.82v-.27h-.82v-.27h-.55v-.28h-1.1V44.3h-.82V44h-1.37v-.27H1288c-3.43-1-9.48-.69-12.61.27h-1.37v.28h-.82v.27h-1.1v.28h-.55v.27l-1.64.27v.28l-1.65.55v.27h-.55v.28l-1.09.27-.28.55-1.09.27c-.1.18-.19.37-.28.55h-.55l-.54.82h-.55l-.83,1.1c-4.88,3.51-8,9.17-10.14,15.35-.46,2.38-.91,4.75-1.37,7.13v4.11a32.56,32.56,0,0,0,1.65,11V89h.27v.83h.27v.55h.28l.27,1.64h.28l.54,1.64h.28v.55h.27c.09.37.19.73.28,1.1l.55.27.27,1.1h.27l.28.82.55.28v.55l.82.54v.55l2.19,1.92,1.92,2.19h.55l.82,1.1h.55l.27.55h.55l.28.55,1.09.27.28.55,1.09.27v.28l1.1.27v.28l6.85,2.19h1.65a23.27,23.27,0,0,0,6.3.55c6.5,0,10.91-1.07,15.08-3.29l1.65-.55.27-.55,1.1-.27.27-.55h.55c.18-.28.37-.55.55-.82h.55l1.09-1.37,2.75-2.47V100l.82-.55v-.55l.55-.27V98l.54-.27c.1-.28.19-.55.28-.83h.27c.28-.82.55-1.64.82-2.46h.28v-.55h.27V93.1h.28v-.55h.27v-1.1h.28l.27-1.92H1296C1295.71,89.69,1295.36,91.08,1295.16,91.45Zm-26.32-26h.27v-.55h.28V64h.27v-.55h.28v-.55l.55-.27.27-1.1,1.1-.82V60.2h.27c.18-.28.37-.55.55-.82h.55l.54-.83h.55l.28-.54h.55v-.28l1.09-.27v-.28h.82v-.27h.83v-.28h1.37v-.27H1282a.72.72,0,0,1,.82-.27v.27h2.47v.27h1.1v.28h.82v.27h.82c4.11,1.79,7.74,6.88,8,12.61h-28.24C1268.24,68.43,1268.26,66.74,1268.84,65.41Z"/><path class="cls-1" d="M1474.45,108.72h-16.72V76.92c0-5.32.49-11.3-1.65-14.53l-.82-.55v-.55l-.55-.27-.82-1.1h-.55l-.27-.55-1.1-.27v-.27h-.55v-.28l-1.64-.27V58h-1.92v-.27c-1.19-.33-3.1.31-3.84.55l-1.92.27v.28l-1.64.54v.28h-.55l-.55.82h-.55l-.82,1.1-.82.55v.54l-.83.55-.27,1.1h-.27c-.19.55-.37,1.1-.55,1.64H1435l-.27,1.65h-.27v1.1h-.28v1.91c-.79,2.79-.27,7.89-.27,11.24v26.87h-16.73V44.84h16.45v8.78h.28c.18-.35.43-.38.55-.55v-.55l.82-.55v-.55l.82-.54v-.55l1.92-1.65.82-1.09h.55l.55-.83h.55l.27-.54,1.1-.28.27-.55h.55v-.27h.55v-.28l1.64-.27V44.3h.55V44l4.11-.55a18.36,18.36,0,0,1,6-.27v.27h1.91v.28h1.1V44h1.1v.28h.82v.27h.55v.27h.82v.28l1.1.27v.28l1.09.27v.28l.83.27.27.55h.55l.82,1.09h.55l1.37,1.65.55.27v.55l1.09.82V52l.55.28.28,1.09.55.28.27,1.09h.27l.28,1.1h.27v.82h.28v.55h.27c.46,1.92.91,3.84,1.37,5.76v45.78Z"/><path class="cls-1" d="M1535.86,64.31h-15.35a8.16,8.16,0,0,0-4.11-7.4l-.28-.55h-.55v-.28h-.82v-.27h-.82v-.27h-1.1v-.28h-1.64V55a16.35,16.35,0,0,0-5.49.27h-1.64v.28H1503v.27h-.82v.27h-.55v.28H1501L1498.85,58c-.45.63-.51,1.41-1.1,1.92-.09,1.27-.36,1.68,0,2.74v1.1h.28c1,3.56,7.85,4.1,11.51,5.21l3,.27v.28l2.74.27v.28h1.37v.27h1.1v.27h1.09v.28h1.1v.27l2.19.28v.27l2.47.55v.27h.55v.28h.82v.27l1.65.55v.27h.54v.28l1.1.27.28.55h.54l.28.55h.55l.82,1.1h.55v.27l.82.55V78l1.1.82v.55l.54.27v.55l.55.27V81h.28v.55h.27v.82h.27V83h.28l.27,2.19h.28v1.38h.27a33.58,33.58,0,0,1-.27,8h-.28v1.09c-3.49,9.81-12.43,14.81-25.77,14.81-2.76,0-5.59.06-7.67-.55h-1.65v-.28l-3.29-.54v-.28l-2.47-.55v-.27l-1.37-.28v-.27l-1.09-.27v-.28l-1.1-.27L1492,106l-1.1-.27-.27-.55h-.55l-.55-.83H1489c-.55-.63-1.1-1.27-1.64-1.91l-1.65-1.37v-.55l-.82-.55V99.4l-.55-.27c-.18-.55-.36-1.1-.55-1.65l-.55-.27v-.83H1483l-.27-1.09h-.28v-.82a17.6,17.6,0,0,1-1.37-6.58h15.35c.23.31,0,0,.28.27.15,4.44,3.62,7.92,6.85,9.32l2.74.55c1.12.35,4.59,1,6.31.55V98.3h2.19V98h1.1v-.27h.82v-.28h.82v-.27l1.65-.55,1.37-1.65.55-.27v-.55h.27c.32-.56,0-.61.55-1.1V89.53c-1.54-4.34-7.54-4.63-12.06-6l-3-.27-10.42-2.47v-.28h-.82v-.27l-1.37-.27v-.28h-.55v-.27l-2.47-.83-.27-.54-1.1-.28-.54-.82h-.55L1487.06,75l-1.37-1.1v-.54l-.55-.28-.27-1.09h-.28l-.54-1.65h-.28c-.18-1.1-.36-2.19-.55-3.29H1483V62.94a13.52,13.52,0,0,1,.55-4.39V57.46c2.59-7.25,7.53-10.61,14.8-13.16h1.1V44h1.37v-.27h1.64v-.28h2.2c2.58-.72,8.15-.38,10.42.28l3,.27v.28l1.92.27v.27l1.64.28v.27l1.38.28v.27l1.09.28v.27l1.1.27.27.55,1.1.28.27.54.83.28.82,1.1h.55l1.09,1.37.55.27v.55l1.1.82v.55l.55.27v.55l.54.28c.19.54.37,1.09.55,1.64h.28l.27,1.1h.28l.27,1.64A18.31,18.31,0,0,1,1535.86,64.31Z"/><path class="cls-1" d="M1802.06,91.18h-.28v.55l-.54.27v.55l-.55.27v.55l-.55.27-.82,1.1h-.55c-.18.28-.37.55-.55.82h-.55v.28l-1.64.55v.27h-.83v.27l-3,.28v.27h-3.56v-.27h-1.92v-.28h-1.1v-.27h-1.1v-.27H1784v-.28h-.82v-.27h-.55v-.28h-.54c-.1-.18-.19-.36-.28-.54h-.55l-.55-.83h-.54c-.19-.27-.37-.55-.55-.82l-1.37-1.1v-.54l-.82-.55c-.1-.37-.19-.73-.28-1.1l-.55-.27v-.55h-.27v-.55H1776v-.82h-.27v-.55h-.27v-.82a12.46,12.46,0,0,1-1.1-4.94h45.78c0-16.4-5.29-28.19-15.35-34.54l-1.1-.27v-.28h-.55v-.27l-1.64-.55v-.28h-.82v-.27h-.55v-.27l-1.92-.28V44.3h-.82V44h-1.1v-.27h-1.64c-3.94-1.15-10.34-.58-13.71.55h-1.1L1773.27,47l-.27.55h-.55v.27l-.82.28-.28.54h-.54l-.55.83h-.55c-.28.36-.55.73-.82,1.09h-.55c-.09.19-.18.37-.28.55l-1.92,1.65v.55l-1.37,1.09-.27.82-.55.28v.55l-.55.27-.27.82h-.27c-.1.37-.19.73-.28,1.1l-.55.27-.27,1.1h-.28l-.54,1.65h-.28v.82h-.27v.55h-.28v.82h-.27v.82h-.27v.82h-.28V66H1759c-.19,1.18-.37,2.37-.55,3.56-.69,2.23-1.28,7.49-.55,10.14V82.4h.27c.1,1.1.19,2.2.28,3.29h.27v1.1h.28v1.1h.27v.82h.28v.82h.27v.83h.27v.54h.28v.83h.27v.54h.28v.83h.27v.54h.27v.55l.55.28c.19.55.37,1.09.55,1.64l.55.28v.54h.27c.09.28.19.55.28.83l.55.27v.55l1.09.82c3.68,5.11,9.24,8,15.9,10.15h1.37a21.1,21.1,0,0,0,6.31.82c4.76,0,8.09-.18,11.51-1.37l1.92-.28v-.27h.55v-.28h.82v-.27l1.65-.55v-.27h.55v-.28h.54v-.27h.55v-.27h.55c.09-.19.18-.37.28-.55h.54l.28-.55h.55l.54-.82h.55c.37-.46.73-.92,1.1-1.37h.55v-.28l1.09-.82v-.55l1.65-1.37V99.4l.55-.27v-.55l.55-.27.27-.83h.27c.1-.36.19-.73.28-1.09h.27v-.55h.28v-.55h.27v-.55a12,12,0,0,0,1.65-5.21h-16.45C1802.42,90.08,1802.24,90.63,1802.06,91.18Zm-26.32-25.5v-.82h.27v-.55h.28v-.55h.27v-.55h.28v-.54h.27v-.55l.55-.28V61.3l1.1-.83,1.64-1.92h.55l.27-.54h.55v-.28l1.1-.27v-.28l1.64-.27v-.28l4.12-.27v-.27l5.48.82a14.4,14.4,0,0,1,8.5,12.88h-28A10.3,10.3,0,0,1,1775.74,65.68Z"/><path class="cls-1" d="M1357.39,44.57v14.8c-6.26,0-9.8.44-13.43,3l-1.1,1.37-1.37,1.1v.55l-.55.27-.27,1.1-.55.27v.82h-.28l-.27,1.1h-.27c-.1.64-.19,1.28-.28,1.92-1,3.11-.82,7.56-.82,11.79v25.77c-1.32.48-3.71.27-5.48.27H1321.2V44.84h16.18V55c1.07-.33.35-.06.82-.82h.27v-.55h.28v-.55h.27l.28-.82.54-.28v-.55l.55-.27V50.6l1.1-.82v-.55l1.37-1.1.27-.54h.55l.55-.83h.55l.27-.54h.55l.28-.55h.54v-.28h.83v-.27h.54v-.28l2.2-.27V44.3l4.66-.28v.28Z"/><path class="cls-1" d="M1584.66,44.84h16.72v63.88h-16.72Z"/><path class="cls-1" d="M1652.92,44.84h16.45V76.37c0,2.61-.32,6.09.27,8.23.1,1.55.19,3.1.28,4.66h.27v.82h.28v.55h.27v.82l.55.27v.55l.55.28v.54h.27l.55.83h.55l.27.55.83.27V95l2.46.83h1.65v.27h3v-.27l2.74-.28v-.27h.83V95l1.64-.54.28-.55h.54l1.38-1.65,1.09-.82V90.9l.55-.27.27-.83h.28l.27-1.37h.28v-.54h.27v-.83h.27V86h.28c.81-2.64.27-8.51.27-11.79V44.84h16.73v63.88h-15.9c-.67-1.79-.29-5.12-.28-7.4h-.55v.55L1691.3,103v.55l-1.92,1.65-.27.55h-.55l-.82,1.09h-.55l-.27.55-1.1.27-.27.55H1685v.28h-.55v.27h-.82V109h-.83v.27H1682v.27h-.82v.28l-3.56.27a17,17,0,0,1-7.68-.27l-2.47-.28v-.27l-2.47-.55v-.27l-1.64-.55v-.28l-1.1-.27-.27-.55h-.55l-.55-.82h-.55l-1.64-1.92-1.37-1.1v-.54l-.55-.28-.27-.82h-.28l-.27-1.1-.55-.27-2.19-6.58V91.45h-.28V44.84Z"/><path class="cls-1" d="M1794.66,177.26v-1.37h-.28v-1.37h-.27c-.09-.73-.18-1.46-.28-2.19h-.27v-.83h-.27v-.82H1793l-.27-1.92h-.28v-.55h-.27c-.18-.82-.37-1.64-.55-2.46h-.27v-.55h-.28l-.27-1.37h-.28l-.54-1.65h-.28v-.55h-.27v-.54h-.28l-.54-1.65-.55-.27c-.09-.37-.19-.73-.28-1.1h-.27c-.09-.27-.18-.55-.28-.82l-.54-.28v-.55l-.83-.54v-.55l-.82-.55v-.55l-1.92-1.64V152h-.27c-.18-.28-.37-.55-.55-.82l-.82-.28c-.46-.55-.92-1.09-1.37-1.64h-.55l-.55-.83h-.55l-.27-.54h-.55l-.27-.55h-.55l-.28-.55-1.64-.55V146h-.55v-.28l-1.65-.55v-.27h-.82v-.27h-.55v-.28h-.82v-.27h-.82v-.28h-1.1v-.27h-1.09v-.27h-1.1V143h-1.65v-.27h-2.19v-.28h-4.11v-.27h-9.6c-2.5-.7-5.85,0-8.49,0H1722v89.37c6.15-1.1,13.67.29,20.28-.27,2-.18,4.72-.28,7.13-.28h3.29v-.27c1.51-.42,3.88.1,5.21-.28h3.84v-.27l4.93-.27v-.28h1.37v-.27h1.1v-.28h1.1v-.27h.82v-.27h.82v-.28l1.37-.27v-.28l1.1-.27v-.27l1.37-.28.27-.55,1.65-.55.27-.54h.55c.09-.19.18-.37.28-.55h.54l.55-.82h.55l1.1-1.38h.55l.54-.82,1.92-1.64v-.55l1.37-1.1v-.55l.83-.54.27-.83.55-.27.27-1.1.55-.27c.09-.28.18-.55.28-.82h.27v-.55h.27v-.55h.28v-.55h.27v-.55h.28v-.55h.27v-.54h.27c.19-.55.37-1.1.55-1.65h.28v-.82h.27v-.55h.27l.28-1.37h.27c.09-.55.19-1.1.28-1.65h.27v-.82h.28V203h.27v-.82h.27c.1-.64.19-1.28.28-1.92h.27c.09-.82.19-1.65.28-2.47h.27l.27-3.29C1796.51,190,1795.86,181.21,1794.66,177.26Zm-17.55,15.35h-.27c-.19,1.65-.37,3.29-.55,4.94H1776l-.54,3.29h-.28l-.27,1.64h-.28l-.27,1.37h-.27c-.1.37-.19.73-.28,1.1h-.27c-.09.36-.19.73-.28,1.1l-.55.27v.55l-.54.27v.55l-.83.55v.55l-.54.27-1.38,1.65h-.54l-.55.82h-.55l-.27.55-1.1.27c-.09.18-.18.37-.28.55l-1.37.27v.28h-.54v.27h-.83V214h-1.09c-5.42,1.82-14.83,1.15-21.93,1.09V157.25h5.48v.27h.82c2.15.09,4.87-.2,6.58.28h3.29v.27l4.11.27v.28h1.1v.27h.82v.28l1.65.27v.27l1.09.28v.27h.55l.27.55h.55l.28.55h.55l.82,1.1,2.47,2.19v.55l.82.55v.54l.55.28.54,1.64h.28v.55h.27c.19.55.37,1.1.55,1.65h.28v.82h.27v.55h.27v.82h.28v.82h.27v.82h.28v.83h.27v1.09h.27v1.1h.28v1.37h.27V180h.28l.27,4.94h.28C1777.29,187.5,1777.2,190.05,1777.11,192.61Z"/><path class="cls-1" d="M2022.75,141.89V156.7H2006V142.17h.28v-.28Z"/><path class="cls-1" d="M1932.83,192.06v-1.64l-1.92-7.13h-.28v-.55h-.27v-.82h-.27c-.19-.55-.37-1.1-.55-1.64h-.28v-.55H1929c-.18-.55-.37-1.1-.55-1.65l-.55-.27-.27-1.1-.82-.55v-.54l-.83-.55v-.55l-1.64-1.37-1.92-2.2h-.55l-.82-1.09h-.55l-.27-.55h-.55c-.09-.18-.18-.37-.28-.55l-1.64-.55v-.27h-.55v-.28l-1.64-.54v-.28l-1.65-.27c-3.06-1.21-8-2-11.79-.82h-1.37V166h-.82v.27h-.82v.28l-1.65.27v.28h-.55v.27h-.54c-.1.18-.19.37-.28.55l-1.1.27v.28l-.82.27-.27.55h-.55l-.55.82h-.55c-.18.28-.36.55-.55.82h-.54l-.55.83c-.84.58-1.66.76-2.19,1.64h-.28V152c0-2.79.52-7.7-.27-9.87h-16.45V231h15.9v-7.67h.27c.63,1.36,1.76,2,2.74,3l1.37,1.65h.55c.19.27.37.55.55.82l1.1.27.27.55,1.1.28v.27l1.64.55V231h.83v.28h.54v.27h.83v.28h1.09c6.26,2.12,13.33.62,18.1-1.92l1.64-.55c.09-.18.18-.37.28-.55h.54c.1-.18.19-.37.28-.55h.55l.55-.82h.54l1.37-1.65h.55c.28-.45.55-.91.83-1.37l1.37-1.09v-.55l.54-.28c.1-.27.19-.54.28-.82h.27v-.55l.55-.27c.18-.55.37-1.1.55-1.65h.27v-.54h.28c.18-.55.36-1.1.55-1.65h.27v-.82h.27v-.55h.28c.18-.82.36-1.64.55-2.47h.27l1.65-8.5v-3.56C1933.38,198,1933.52,194.49,1932.83,192.06ZM1916.65,205h-.27v2.47h-.28v1.09h-.27v.83h-.27v.82h-.28V211H1915c-.09.37-.19.73-.28,1.1h-.27v.55l-.82.54v.55l-.83.55-1.09,1.37h-.55l-.55.82L1909,217v.28h-.55v.27l-1.65.27v.28h-1.37v.27h-5.75v-.27h-1.1v-.28h-.82v-.27l-2.47-.82c-.09-.19-.18-.37-.28-.55h-.54l-3-3.29v-.55l-.55-.27-.27-1.1h-.28l-.27-1.1h-.27v-.82h-.28l-.27-1.1H1889v-.82c-1.27-3.17-2.22-8.41-1.09-12.33v-1.65h.27v-1.1h.28v-.82h.27v-.82h.27v-.82h.28v-.83h.27v-.54h.28v-.83h.27c.18-.54.37-1.09.55-1.64h.27c.09-.37.19-.73.28-1.1l.54-.27v-.55l1.1-.82c.09-.28.18-.55.28-.83h.54l.83-1.09,1.09-.28v-.27l1.65-.55v-.27h.82v-.28h1.37v-.27H1904v.27h1.37v.28h.82V180h.83v.28l1.09.27v.27h.55c.09.19.18.37.28.55h.54l.28.55h.55l1.09,1.37.55.28v.54l.82.55c.1.37.19.73.28,1.1l.55.27v.55h.27v.55h.27V188h.28v.55h.27v.82h.28v.83h.27V191h.28v1.37h.27v1.09h.27v1.92h.28v2.47C1916.63,198.74,1917,203.67,1916.65,205Z"/><path class="cls-1" d="M1688,143.26v13.16l-3.29-.27v.27h-3v.28h-1.1V157h-.82c-3.41,1.57-3.09,6.24-3,11.24H1688V180h-11.24v52.09h-16.72V180h-8.77V168.21h8.77c0-5.35-.26-10.82,1.37-14.53h.27l.28-1.1h.27V152l.55-.28v-.55l.55-.27v-.55l1.37-1.09v-.55l.82-.28c.37-.45.73-.91,1.1-1.37h.55l.27-.55,1.1-.27.27-.55h.55v-.27h.55v-.28h.82v-.27h.55v-.28l1.64-.27v-.27h1.1v-.28h1.1v-.27h1.64v-.28h2.2V143h2.19Z"/><path class="cls-1" d="M908.34,144.09V157c-1.52.56-4.33.29-6.31.28v.27h-1.37v.27l-1.1.28v.27H899c-2.49,1.69-2.23,6.44-2.19,10.69h11.24c.81,2.19.29,8.59.28,11.52-2.19.8-8.59.29-11.52.27v52.09H880.1V180.82h-8.77V169h8.77c0-4.2-.22-8.7.82-11.78l.27-1.92h.28c.18-.55.36-1.1.55-1.65h.27v-.55h.28l.27-1.09.82-.55v-.55l1.92-1.64.82-1.1H887l.28-.55h.54l.28-.55,1.09-.27v-.28l1.65-.54v-.28h.82v-.27h.55v-.28h1.1v-.27h.82v-.28h1.37v-.27h1.37v-.27h2.47C901.9,143.36,905.62,144.05,908.34,144.09Z"/><path class="cls-1" d="M933.28,144.09h71.28v15.07H978v73.48c-1.39.51-3.92.27-5.76.27H960.15c-.63-1.74-.27-4.91-.27-7.13V159.16h-26.6Z"/><path class="cls-1" d="M1130.4,144.09h16.72v33.17h.55l1.64-2.47.82-.55v-.55l1.37-1.09.28-.55h.55l.82-1.1h.55l.27-.55h.55l.27-.54,1.1-.28v-.27l1.1-.28v-.27h.82v-.27h.82v-.28h1.1v-.27h1.1v-.28h1.64a19.47,19.47,0,0,1,6.31-.27v.27h1.92v.28l2.19.27v.28h.55v.27l1.64.27v.28l1.1.27v.28h.55l.27.54,1.1.28.27.55.82.27,1.1,1.37h.55v.28l.82.54v.55l1.37,1.1v.55l.55.27.27.82h.28l.27,1.1.55.27.27,1.38h.28l.27,1.09h.28c.45,1.65.91,3.29,1.37,4.94v1.92h.27v45.23H1171V201.66c0-5.85.41-11.84-1.92-15.35l-.82-.55v-.55H1168l-.54-.82h-.55l-.55-.83h-.55v-.27l-1.1-.27v-.28h-.82v-.27h-1.1v-.28h-1.91v-.27h-1.92v.27H1157v.28l-1.65.27V183l-1.64.54v.28h-.55l-.27.55h-.55c-.37.45-.73.91-1.1,1.37l-1.1.82v.55l-.54.27-.28.82H1149v.55h-.28l-.27,1.1h-.28l-.27,1.64h-.27v1.1h-.28v1.65c-.81,2.81-.27,7.36-.27,10.69v28H1130.4Z"/><path class="cls-1" d="M1337.1,144.09h16.73v88.82H1337.1Z"/><path class="cls-1" d="M1995.61,224.69c-.09-2.93-.19-5.85-.28-8.78V193.16c0-3.54.29-7.64-.55-10.42v-1.37h-.27v-1.09h-.27c-.19-.83-.37-1.65-.55-2.47h-.28l-.54-1.65h-.28v-.54h-.27c-.09-.28-.19-.55-.28-.83l-.55-.27V174l-1.09-.82v-.55h-.28l-.82-1.1h-.55l-.82-1.09h-.55l-.27-.55-.82-.28v-.27l-1.1-.27-.27-.55-6.31-2.2h-1.37V166h-1.37v-.27h-2.47c-1.74-.5-4.65-.28-6.85-.28h-2.74v.28h-2.47V166H1960v.27h-1.37c-9.09,2.87-17.37,8.27-17.27,20.29H1949c.92,0,2.25.17,2.74-.27H1955l.55-.83,1.1-.82v-.55l.55-.27.27-.82h.27c.1-.37.19-.73.28-1.1l.55-.27v-.55l.55-.28,1.09-1.37,1.1-.27a14.35,14.35,0,0,1,12.06-.55h.82v.27h.55v.28h.82c.1.18.19.36.28.55h.55l.27.55,1.37,1.09c.85,1.26.84,3.09.82,5.21-.54.49-.22.54-.54,1.1h-.28v.55l-1.92,1.37h-.55v.27h-.54v.28h-.83v.27h-1.09v.27H1972V191h-1.37c-3.91,1.2-9,1.26-12.89,2.46l-2.46.28c-5.81,2-10.43,3.58-13.71,8.22l-.82.55c-.09.37-.19.73-.28,1.1l-.55.27c-.54,1.65-1.09,3.29-1.64,4.94V211H1938c-.46,1.64.22,4.93.54,6v1.37h.28v1.1h.27v.82h.28v.82h.27l.27,1.1h.28l.27,1.1.55.27v.55l.55.27V225l1.37,1.1,1.65,1.92h.54c.1.18.19.36.28.55l.82.27v.27l1.1.28.27.55h.55v.27h.55v.27h.82v.28h.55V231l4.66,1.37h1.92v.28h2.47a24.41,24.41,0,0,0,9.32-1.65l1.64-.27v-.28l1.1-.27v-.27h.55v-.28h.54v-.27h.55v-.28h.55c.09-.18.18-.36.28-.54l1.09-.28.28-.55h.54c.19-.27.37-.54.55-.82h.55l1.1-1.37h.55l.54-.82c.7.68.2,1.19.55,2.19h.28v.82h.27v.83c.38.83,1.22,1.41,1.65,2.19,4.36.79,10.23.29,15.07.27A25,25,0,0,0,1995.61,224.69Zm-16.45-17.55c-.41,1.5.24,3.34-.28,4.66h-.27v.55h-.27v.55h-.28v.55h-.27V214h-.28v.54l-1.09.83v.54l-.83.55v.28h-.54l-.83,1.09h-.54l-.28.55-1.1.28v.27l-1.09.27v.28h-.82v.27l-2.2.28v.27h-3.29c-3.06,0-4.37,0-6.3-1.1h-.55c-.09-.18-.18-.36-.28-.54h-.54l-.28-.55-1.09-.82c-1.69-2.39-1.64-7,0-9.33l.82-.54,1.09-1.37,1.1-.28v-.27l1.65-.55v-.28h.82v-.27h.55v-.27l1.92-.28v-.27l1.91-.28V203h1.1v-.27h1.1v-.28h.82v-.27l3.29-.55v-.27h1.1v-.28h1.09v-.27h1.1v-.28h1.1v-.27l2.74-.55.27,7.4Z"/><path class="cls-1" d="M1648.26,198.1v-3H1648v-1.65h-.28v-1.37h-.27v-1.37h-.28v-.82h-.27v-.82h-.27V188h-.28l-.27-1.37h-.28V186h-.27v-.82h-.27c-.19-.55-.37-1.1-.55-1.64h-.28l-.27-1.1-.55-.28-.27-1.09-.55-.28v-.54l-.82-.55v-.55l-.83-.55v-.55l-1.64-1.37v-.55h-.28c-.27-.36-.54-.73-.82-1.09h-.55l-1.37-1.65h-.55l-.54-.82h-.55c-.09-.18-.18-.37-.28-.55H1634l-.28-.55h-.55l-.27-.55-1.65-.54v-.28h-.54v-.27l-1.65-.55V169h-.82v-.28h-.55v-.27h-.82v-.28h-.82v-.27l-1.92-.28v-.27l-2.75-.27v-.28l-9.86-.27c-.66.57-2.57.24-3.57.55l-6.3,1.92v.27l-1.65.55v.27h-.55v.28l-1.64.54c-.09.19-.18.37-.28.55H1597l-.28.55h-.55l-.27.55h-.55c-.18.27-.36.55-.55.82h-.55l-1.09,1.37h-.55l-.27.55-1.65,1.37v.55l-1.37,1.1v.54l-.82.55V180l-.55.28-.28.82h-.27l-.27,1.09-.55.28c-.09.36-.18.73-.28,1.1H1586v.54h-.27c-.19.55-.37,1.1-.55,1.65h-.28v.82h-.27v.55h-.28V188h-.27v.82h-.27v.83h-.28v1.09h-.27v1.1H1583v1.37h-.27v1.65h-.27v2.74h-.28a13.22,13.22,0,0,0,.28,5.21v2.74h.27v1.64h.27v1.37h.28l.27,2.2h.28v.82h.27v.82h.27v.82h.28v.55h.27v.82h.28c.18.55.36,1.1.55,1.65h.27v.55h.27c.19.55.37,1.09.55,1.64l.55.28v.54l.55.28V220l.55.27v.55l.82.55V222l1.1.82v.55l.82.55c.55.64,1.1,1.27,1.64,1.91h.55l1.1,1.38h.55l.54.82h.55c.09.18.19.36.28.55l.82.27v.27l1.64.55.28.55h.55v.27h.55v.28h.82V231l1.09.28v.27l1.65.28a29.77,29.77,0,0,0,11.51,1.91h4.12v-.27h1.91v-.27H1623v-.28l2.19-.27v-.28h.83v-.27h.82v-.27h.82v-.28h.82v-.27l1.1-.28v-.27l1.37-.28.27-.54,1.65-.55.27-.55,1.1-.27.55-.83h.55l.27-.54h.55l1.37-1.65h.55l.27-.55,1.65-1.37V223l1.37-1.09v-.55l.82-.55v-.55l.55-.27.27-.83h.28l.27-1.09.55-.28.27-1.09h.28c.18-.55.36-1.1.55-1.65h.27v-.82h.27v-.55h.28l.27-1.37h.28l.27-1.92h.27v-.82h.28v-1.1h.27v-1.37h.28l.27-4.93h.28V198.1Zm-17,6.57H1631v1.65l-1.37,4.93h-.27v.55h-.28v.55h-.27v.55h-.28v.55h-.27V214l-.55.27v.55l-.82.55v.54l-1.65,1.38-.27.54h-.55l-.27.55h-.55c-.09.19-.18.37-.28.55l-1.64.55v.27h-.55V220l-3.29.55v.27h-1.92c-3.45,0-5.51-.45-7.67-1.65h-.55l-.28-.54h-.55l-3.28-3v-.55l-.83-.55-.27-1.09c-3.25-5.13-4.32-15.06-1.92-21.93l.27-1.92h.28c.18-.55.36-1.1.55-1.65h.27v-.55h.27c.19-.54.37-1.09.55-1.64l.83-.55v-.55l1.91-1.64.55-.83h.55c.18-.27.37-.54.55-.82h.55v-.27l1.64-.55v-.27L1611,180v-.27h1.37v-.28h6v.28l2.19.27v.28h.55v.27h.82v.27h.55v.28h.55l.27.55h.55c.18.27.37.54.55.82h.55c.18.27.36.55.55.82l1.37,1.1v.55l.82.54V186l.55.28c.18.55.36,1.09.55,1.64h.27v.55h.28v.82h.27v.55h.27q.69,2.88,1.37,5.76Z"/><path class="cls-1" d="M868.31,198.1v-2.47H868V194h-.28v-1.37h-.27v-1.09h-.28v-1.1h-.27c-.18-.82-.37-1.65-.55-2.47h-.27v-.55h-.28v-.82h-.27c-.18-.55-.37-1.1-.55-1.64h-.27v-.55h-.28c-.18-.55-.36-1.1-.55-1.65l-.54-.27v-.55h-.28l-.27-.82-.55-.28v-.54l-.82-.55v-.55l-1.37-1.1v-.55l-.55-.27-1.37-1.64h-.55l-1.1-1.38H856l-.55-.82h-.54l-.28-.55h-.55l-.27-.54-.82-.28v-.27l-1.65-.55V171h-.55v-.27l-1.64-.55v-.27h-.82v-.28h-.55v-.27l-2.74-.55v-.27h-.83v-.28h-1.37c-3-.93-7.21-.86-11.24-.82-.73.63-2.46.21-3.56.55v.27h-1.1v.28h-1.09v.27l-1.92.28v.27h-.55v.27l-1.65.28v.27l-1.64.55V171h-.55v.28l-1.1.27-.27.55-1.1.28-.27.54h-.55l-.27.55h-.55l-.82,1.1H814l-1.92,2.19-2.47,2.19v.55l-.82.55v.55l-.55.27v.55l-.55.28-.27.82h-.28l-.27,1.1-.55.27v.55h-.27c-.09.36-.18.73-.28,1.09h-.27v.83h-.27c-.1.36-.19.73-.28,1.09h-.27v.83h-.28v.82h-.27v.82h-.28v.82h-.27l-.27,2.2h-.28l-.27,3h-.28v3.29h-.27V203h.27v3h.28v1.64h.27v1.37h.28v1.37h.27v.82h.27c.1.64.19,1.28.28,1.92h.27v.55h.28v.82H805v.55h.28v.82h.27l.55,1.65h.27c.09.37.18.73.28,1.1l.54.27c.1.37.19.73.28,1.1l.55.27v.55l.55.27v.55l.82.55v.55l1.37,1.1v.54l.55.28c.45.55.91,1.09,1.37,1.64h.55l1.37,1.65h.54c.1.18.19.36.28.55H816l.55.82H817c.1.18.19.36.28.55l1.64.54.28.55h.55v.28h.54v.27h.83v.28l1.09.27v.27l1.65.28a29.51,29.51,0,0,0,11.51,1.92h4.39v-.28h1.92V234h1.37v-.28h1.37v-.27h.82v-.27l1.92-.28v-.27h.55v-.28h.82v-.27h.55v-.27h.82v-.28l1.1-.27V231l1.09-.27c.1-.18.19-.37.28-.55l1.1-.27v-.28l.82-.27.27-.55h.55l.55-.82h.55l.82-1.1h.55l1.09-1.37,1.92-1.64v-.55l1.1-.83V222l.82-.55v-.55l.55-.27c.09-.37.18-.74.28-1.1l.54-.28v-.54h.28v-.55h.27v-.55h.28V217H865v-.55h.27v-.55h.28l.27-1.09h.28l.27-1.65h.27v-.82h.28v-.82h.27v-1.1h.28v-1.09h.27v-1.1H868v-1.65h.27v-2.74h.27A17.14,17.14,0,0,0,868.31,198.1ZM847.2,216.46l-1.37,1.1-1.1,1.37h-.55l-.27.55-1.1.27-.27.55-4.39,1.37c-1.94.57-7.36-.34-8.5-.82v-.27h-.54v-.28h-.83l-.27-.55-1.1-.27-.54-.82c-5.18-3.66-6.86-9.78-6.86-18.65a20.87,20.87,0,0,1,.82-6.58v-1.09c1.53-4.35,3.81-8.15,7.41-10.42l4.66-1.64h6l4.66,1.64v.27l.82.28.27.55h.55c.46.55.92,1.09,1.37,1.64l1.1.82V186l.55.28v.55l.55.27c.18.55.36,1.1.55,1.64h.27l.27,1.1h.28l.27,1.65C853.12,199.57,851.2,210.8,847.2,216.46Z"/><path class="cls-1" d="M1035.27,219.75l-1.65.55v.28h-.55v.27h-.82v.27l-3,.28v.27h-3.56v-.27l-3-.28-4.39-1.92c-.28-.36-.55-.73-.82-1.09h-.55l-.82-1.1-.55-.27v-.55l-.83-.55v-.55l-.54-.27v-.55h-.28v-.55h-.27v-.55h-.28v-.54h-.27v-.55h-.27c-.1-.55-.19-1.1-.28-1.65a12.53,12.53,0,0,1-1.09-4.66h45.78c0-17.81-5.65-28.6-16.73-35.36l-1.37-.28v-.27l-1.09-.28v-.27h-.83V169h-.82v-.28h-.82v-.27h-1.1v-.28h-1.09v-.27h-1.65c-3.94-1.15-10.32-.59-13.71.55h-1.09v.27h-.82V169h-.83v.27h-.82v.27l-1.1.28v.27h-.82v.28H1012v.27h-.54c-.1.18-.19.37-.28.55l-1.64.55v.27l-.83.28-.27.54h-.55l-.55.83c-5.09,3.61-8.69,9.22-11,15.62v1.1h-.28v1.1h-.27v1.09h-.28V194h-.27v1.92H995v3.29h-.28v3.57H995v3.29h.27V208h.27v1.38h.28v1.37l1.92,5.75H998c.09.37.18.73.28,1.1h.27v.55h.27v.55h.28v.54h.27v.55l.55.28v.55h.27v.54l.83.55v.55l.55.27V223l1.37,1.1v.55l.82.55,1.64,1.92h.55c.28.36.55.73.82,1.09l.83.28.27.54h.55l.27.55,1.1.28.27.54,6.31,2.75h1.1v.27h.82v.27h1.37V234H1021v.27h2.19c3.58,1,10.71.09,13.44-.82h1.09v-.27h.83v-.28h.82v-.27h.82v-.28l1.1-.27v-.27h.82v-.28h.55v-.27h.55l.27-.55,1.65-.55.27-.55h.55l.55-.82h.54l.83-1.1a23.14,23.14,0,0,0,8.5-14h-16.73A11.86,11.86,0,0,1,1035.27,219.75Zm-22.48-29.6.27-1.65h.27V188h.28l.27-1.09.55-.28V186l.55-.27v-.55l1.64-1.37c.19-.27.37-.55.55-.82h.55l.27-.55h.55l.28-.55,1.37-.27v-.28h.55v-.27h1.09v-.28h1.1v-.27h3v-.27c.46-.08.49.25.55.27h2.74v.27h1.1v.28h.82v.27l1.1.28v.27l1.65.55c2.86,1.88,5.78,6.69,5.75,11.51h-28A10.18,10.18,0,0,1,1012.79,190.15Z"/><path class="cls-1" d="M1122.45,190.69H1106c-.64-1.73-1-3.51-1.92-4.93l-.83-.55v-.55l-1.09-.82v-.28h-.55l-.55-.82-1.1-.27-.27-.55h-.82v-.28h-.55v-.27h-1.1v-.27h-1.64v-.28c-1.21-.34-3.9.31-4.66.55h-1.1v.27l-1.64.28v.27l-1.1.28v.27h-.55l-.27.55h-.55l-.82,1.1L1083,186v.55l-.55.27v.55l-.55.28c-.18.54-.36,1.09-.55,1.64h-.27v.55h-.28c-.45,1.64-.91,3.29-1.37,4.93v1.92c-.28,1-.66,7.13-.27,8.5h.27v1.92h.28v1.37h.27v1.1h.28v1.09h.27v.83h.27v.55h.28l.82,2.46h.28l.27.82.55.28v.55l1.64,1.37.83,1.09h.54l.28.55h.55v.28l1.64.55v.27h.82v.27h1.1v.28l6,.27v-.27l3.29-.55V220h.55v-.28c3.75-2,5.73-4.45,6.58-9.32H1123a16.11,16.11,0,0,1-1.09,5.21v1.1h-.28v.82h-.27v.55h-.28v.82h-.27c-.18.55-.37,1.1-.55,1.64H1120l-.28,1.1-.54.27v.55l-.55.28v.55l-.55.27v.55l-1.1.82v.55l-1.92,1.64-.55.83H1114l-.83,1.09h-.54l-.55.82h-.55v.28h-.55l-.27.55h-.55V231h-.55v.28H1109v.27h-.55v.27l-1.09.28v.27h-.83v.28H1106v.27l-1.65.27v.28l-2.19.27c-2.54.82-8.9,1.46-12.06.55h-1.92V234h-1.37v-.28h-1.37v-.27h-.83v-.28l-1.92-.27v-.27l-1.37-.28v-.27h-.55v-.28H1080v-.27l-1.09-.27V231l-1.1-.27-.28-.55-1.09-.28v-.27l-.82-.27-.28-.55h-.55l-.82-1.1h-.55l-1.64-1.92-2.2-1.92v-.54l-1.09-.83v-.55l-.55-.27v-.55l-.55-.27v-.55l-.55-.27c-.18-.55-.36-1.1-.55-1.65H1066v-.55h-.27v-.55h-.28c-.18-.54-.36-1.09-.55-1.64h-.27l-.27-1.65h-.28v-.54h-.27v-1.1h-.28v-.82h-.27v-1.1H1063v-1.1h-.27l-.27-3.56h-.28v-3.84h-.27l.27-3.56a28.54,28.54,0,0,1,2.47-11.24v-.82h.27l.28-1.1h.27v-.82h.28v-.55h.27v-.55l.55-.27.27-1.1.55-.28v-.54h.28v-.55l.82-.55v-.55l.82-.55v-.55l1.37-1.09v-.55l1.37-1.1.28-.54h.54l1.1-1.38h.55l.55-.82h.55l.27-.55h.55l.27-.54,1.1-.28.27-.55,2.47-.82v-.27l1.1-.28v-.27h.82V169h.82v-.27l1.92-.27v-.28h1.37v-.27h1.37c3.48-1,10-.72,13.16.27h1.37C1113.46,171.9,1120.2,178.25,1122.45,190.69Z"/><path class="cls-1" d="M1214.83,232.91h-16.72V169h16.45v8.78h.27l.55-.83h.28v-.54l.54-.28v-.55l1.1-.82v-.55l1.92-1.64.27-.55h.55l.82-1.1h.55l.28-.55,1.09-.27.28-.55h.55v-.27h.82V169h.55v-.27h.82v-.27h.82v-.28h.82v-.27h1.37a17.65,17.65,0,0,1,8-.28h1.65v.28h1.1v.27h1.09v.28h.83v.27h.54V169h.83v.28h.54v.27l1.65.55.27.55h.55a21.18,21.18,0,0,1,3,2.74l1.09.82v.55l1.1.82v.55l.55.28V177l.55.28c.18.55.36,1.09.55,1.64h.27c.18.55.37,1.1.55,1.65h.27c.09.55.18,1.09.28,1.64,1.81,4.63,1.64,11.28,1.64,17.82v32.63c-1.32.48-3.71.27-5.48.27H1239a15.52,15.52,0,0,1-.28-4.39V191.24h-.27v-1.37h-.27v-.82h-.28v-.83h-.27c-.19-.54-.37-1.09-.55-1.64l-.55-.27v-.55l-1.37-1.1-.27-.55h-.55l-.28-.55h-.54v-.27l-1.1-.27v-.28l-1.65-.27v-.28h-1.92v-.27h-1.91v.27H1225v.28h-1.1v.27h-.82V183l-1.1.27v.27h-.55l-.27.55h-.55l-.27.55h-.55l-.82,1.1-.55.27v.55l-.83.55v.55l-.54.27v.55h-.28c-.18.55-.36,1.09-.55,1.64h-.27l-.27,1.65h-.28v1.37c-1.07,3.59-.55,9.24-.55,13.71Z"/><path class="cls-1" d="M1328.88,199.19v-3h-.28v-1.92h-.27v-1.37h-.27c-.1-.73-.19-1.47-.28-2.2h-.27v-.82h-.28v-.82H1327l-.27-1.65h-.28l-.27-1.09h-.28v-.83h-.27c-.09-.36-.18-.73-.28-1.09H1325v-.55l-.55-.27-.27-1.1h-.28l-.27-.82-.55-.28v-.55l-.55-.27V180l-.82-.55v-.55l-2.47-2.19-1.92-2.19h-.54l-.83-1.1h-.54c-.1-.18-.19-.36-.28-.55h-.55l-.27-.54-1.1-.28-.27-.55-1.1-.27V171h-.55v-.27l-1.64-.55v-.27l-1.65-.28v-.27h-.54V169l-7.68-1.65h-7.68c-.66.58-2.57.24-3.56.55l-6.31,1.92v.27l-1.64.55V171h-.55v.28l-1.64.55c-.1.18-.19.36-.28.55h-.55l-.27.54h-.55l-.27.55H1276c-.18.28-.37.55-.55.82h-.55l-1.1,1.38h-.54l-.28.54-1.64,1.37v.55l-1.37,1.1v.55l-.83.55v.54l-.54.28c-.1.27-.19.55-.28.82H1268v.55l-.55.27c-.18.55-.37,1.1-.55,1.65h-.27v.55h-.28c-.18.54-.36,1.09-.55,1.64h-.27v.82h-.27V188H1265v.82h-.27v.83h-.28v.82h-.27v1.1h-.27v1.09h-.28V194h-.27v1.65h-.28v2.47h-.27c-.5,1.78.19,7.24.55,8.49l.27,3h.28v.82h.27v1.1h.27v.82h.28v.82h.27V214h.28v.82h.27l.27,1.09h.28v.55h.27v.83l.55.27c.18.55.37,1.1.55,1.64l.55.28.27,1.1.55.27v.55l.82.55v.54l1.1.83v.55l1.1.82,1.91,2.19h.55l.83,1.1h.54c.19.27.37.55.55.82h.55l.27.55h.55c.09.18.19.36.28.55l1.09.27c.1.18.19.37.28.55l1.09.27v.28l1.1.27v.28h.82v.27h.55v.27h.82a28.78,28.78,0,0,0,12.07,2.2h4.66v-.28h1.92V234h1.37v-.28h1.09v-.27h1.1v-.27h.82v-.28h.83v-.27h.82v-.28h.82v-.27l1.1-.27v-.28h.82v-.27h.55V231h.55l.27-.55,1.64-.54.28-.55h.55c.18-.28.36-.55.55-.82h.54l.28-.55h.55l1.37-1.65h.55l.27-.55,1.64-1.37v-.54l1.37-1.1v-.55l.83-.55v-.55l.55-.27.27-.82h.27c.1-.37.19-.73.28-1.1l.55-.27.27-1.1h.27c.19-.55.37-1.1.55-1.65h.28v-.82h.27v-.55h.28l.27-1.37h.27v-1.09h.28v-.83h.27v-1.09h.28v-1.1h.27v-1.37h.27c.1-1.64.19-3.29.28-4.93h.27v-3.57Zm-17.27,6v1.92h-.28l-.27,2.47h-.28l-.27,1.64h-.27v.55H1310c-.27.83-.55,1.65-.82,2.47l-.55.27-.27,1.1-.82.55v.55l-1.38,1.09-.54.83H1305c-.09.18-.18.36-.28.54l-.82.28v.27l-1.64.55v.28h-.55v.27h-.82v.27h-.83v.28h-1.37v.27a28.51,28.51,0,0,1-6.85-.27v-.28h-.82v-.27h-.83v-.27h-.82v-.28h-.55V220h-.55l-.27-.55h-.55l-.27-.55h-.55l-.82-1.1-1.92-1.64v-.55l-.55-.27-.27-1.1-.55-.27v-.55h-.28v-.55H1282v-.82h-.27v-.55h-.28v-.82h-.27v-.83h-.28v-1.09h-.27v-1.37h-.28v-1.65h-.27v-3h-.27v-3.57h.27v-3h.27v-1.65h.28v-1.37h.27v-1.1h.28l.27-1.64h.28l.27-1.1h.27c.09-.45.19-.91.28-1.37l.55-.27.27-1.1.82-.55v-.55l1.65-1.37.82-1.09h.55l.27-.55h.55l.27-.55h.55v-.27l1.1-.28v-.27l1.64-.28v-.27H1293v-.27h6v.27h1.09v.27h.83v.28h.82v.27h.55v.28h.82l.27.54,1.1.28.55.82h.55l.27.55,1.37,1.1v.54l.82.55v.55l.55.28v.54l.55.28v.55h.27c.1.36.19.73.28,1.09h.27v.83h.28v.54h.27l1.37,6C1312.27,198.1,1311.89,204.2,1311.61,205.22Z"/><path class="cls-1" d="M1428.12,197.82h-.27v-2.47h-.28v-1.64h-.27v-1.37H1427v-1.1h-.27v-.82h-.27v-.82h-.28v-.83h-.27c-.09-.54-.19-1.09-.28-1.64h-.27l-.55-1.65h-.27v-.54h-.28v-.55H1424v-.55h-.28v-.55h-.27v-.55l-.55-.27v-.55l-.55-.27v-.55h-.27l-.28-.82-.54-.28v-.55l-1.37-1.09v-.55l-.83-.55-1.64-1.92h-.55l-1.1-1.37h-.54c-.1-.18-.19-.37-.28-.55h-.55c-.18-.27-.36-.55-.55-.82l-1.09-.27c-.09-.19-.18-.37-.28-.55l-1.64-.55V171h-.55v-.27l-1.64-.55v-.27h-.83v-.28h-.54v-.27h-.83V169h-.82v-.28l-1.92-.27v-.28l-2.74-.27v-.28l-9.87-.27c-.72.63-2.47.21-3.56.55l-6.86,2.19v.28l-1.64.54v.28l-1.1.27-.27.55-1.1.28-.27.54h-.55l-.55.83h-.55l-.55.82h-.55l-1.64,1.92-2.47,2.19v.55l-1.09.82v.55l-.55.27c-.09.28-.19.55-.28.83h-.27v.54l-.55.28c-.18.55-.36,1.1-.55,1.64h-.27v.55l-.55.28v.82h-.27c-.1.36-.19.73-.28,1.1h-.27l-.28,1.37H1364v.82h-.27v.82h-.28v.82h-.27v1.1h-.28v1.1h-.27c-.09,1.09-.18,2.19-.28,3.29h-.27V200h-.27v2.2h.27v3.56h.27v1.92h.28v1.37h.27v1.1h.28v1.09h.27v.83h.28v.82h.27v.82h.27v.82h.28v.55h.27v.82h.28l.27,1.1h.27c.1.37.19.73.28,1.1l.55.27c.18.55.36,1.1.55,1.65l.54.27v.55l.83.55V222l.82.54V223l1.64,1.37V225l.83.55.27.55h.55c.46.55.91,1.1,1.37,1.64h.55l.55.83.82.27.27.55,1.1.27.27.55,1.65.55V231h.55v.28h.54v.27l1.65.55v.27l1.64.28a29.56,29.56,0,0,0,11.52,1.92h4.38l7.41-1.65v-.27h.55v-.28h.82v-.27h.55v-.27h.82v-.28l1.09-.27V231l1.1-.27c.09-.18.18-.37.28-.55l1.09-.27c.09-.19.18-.37.28-.55h.54v-.28l.83-.27.27-.55h.55l.82-1.09h.55l1.65-1.92,1.64-1.37v-.55l1.1-.83V222l.82-.55v-.55l.55-.27V220l.55-.28.54-1.64.55-.28v-.54h.28l.27-1.1h.27v-.82h.28v-.55h.27c.09-.46.19-.92.28-1.37h.27l1.65-6.86V204.4A20.88,20.88,0,0,0,1428.12,197.82Zm-17.27,8.23h-.28v1.64h-.27v1.1H1410v1.09h-.28v.83h-.27v.82h-.28v.55h-.27v.82h-.27v.55h-.28V214l-.55.27-.27,1.1-.82.54v.55l-1.65,1.37-.82,1.1h-.55l-.27.55h-.55l-.28.55-4.93,1.64c-1.94.57-7.38-.34-8.5-.82v-.27l-1.1-.28V220l-1.64-.55c-.18-.28-.37-.55-.55-.82h-.55l-.55-.83-1.37-1.09v-.55l-.82-.55v-.55l-.55-.27-2.19-5.21v-1.1h-.27v-1.37h-.28v-1.92c-.28-1-.66-6.86-.27-8.22h.27v-1.92h.28v-1.37h.27v-1.1h.27v-1.09h.28v-.83h.27v-.54h.28v-.83h.27v-.55h.28l.27-1.09.55-.28.27-1.09.82-.55v-.55l1.37-1.1c.19-.27.37-.54.55-.82h.55l.55-.82,1.1-.28.27-.54,4.11-1.37h6v.27h1.1v.27h1.1v.28h.82v.27l1.1.28v.27h.54v.27l.83.28.27.55h.55l1.37,1.64,1.1.82V186l.82.55v.55h.27v.55h.28v.55h.27v.54h.28v.55h.27l.27,1.1h.28v.82h.27v.82h.28v1.1h.27v1.1h.27v1.64h.28v2.74h.27Z"/><path class="cls-1" d="M1494.19,218.11V169H1478v6.85h-.28c-.83-1.79-2.82-3.28-4.39-4.39l-.54-.82-1.1-.27-.27-.55h-.55v-.28l-1.1-.27V169H1469v-.28h-.55v-.27h-1.1v-.28h-.82v-.27h-1.37v-.28h-1.64v-.27h-4.12a22.13,22.13,0,0,0-8.5,1.65h-.82v.27h-.55v.27h-.82v.28l-1.1.27v.28l-1.09.27c-.09.18-.18.37-.28.55h-.54c-.1.18-.19.36-.28.55h-.55l-.27.55H1444l-.82,1.09h-.55c-.18.28-.37.55-.55.82l-1.92,1.65v.55l-1.09.82c-.1.27-.19.55-.28.82l-.55.28v.54l-.54.28c-.1.36-.19.73-.28,1.1l-.55.27-.27,1.1h-.28l-.27,1.09h-.27v.83h-.28v.54h-.27l-.28,1.37h-.27v.83h-.27v1.09h-.28v.83h-.27v1.37h-.28V191h-.27v1.64h-.28v2.47h-.27v3.29a27.61,27.61,0,0,0,1.1,8.5V208h.27v.83h.28v.82h.27v.82h.27v.82h.28v.55h.27v.83h.28l.27,1.09h.27c.1.37.19.73.28,1.1l.55.27.27,1.1h.28l.27.82.55.28v.54l1.09.83c3.38,4.68,8.25,7.56,14.26,9.59h1.37a21.45,21.45,0,0,0,12.89-.55h.82v-.27h.55v-.27h.82v-.28h.55l.27-.55,1.1-.27.27-.55h.55l.27-.55h.55c.37-.45.73-.91,1.1-1.37h.55l1.37-1.92h.82c.06,5.91.16,11.85-2.19,15.35l-1.37,1.1-.83,1.1h-.54c-.09.18-.19.36-.28.55l-1.09.27v.27l-1.1.28v.27h-1.1v.28h-.82v.27h-1.64a19.47,19.47,0,0,1-6.31.27v-.27l-2.74-.27v-.28h-.82c-2.44-1.06-5.44-3.44-6-6.3h-16.72l.82,4.11h.28v.82h.27v.82h.28l.54,1.65h.28l.27,1.1.55.27v.55l.82.55c3,4.15,7.14,6.64,12.34,8.49h1.1v.28h1.09v.27h1.1v.28h1.65V254h1.64v.28h3.29v.27l9.87-.27V254h1.92v-.27h1.37v-.28h1.1v-.27h1.09v-.28h1.1v-.27h.82v-.27h.82v-.28h.55v-.27h.82v-.28l1.65-.54v-.28l1.1-.27.27-.55,1.1-.27.27-.55.82-.28.83-1.09h.54l.28-.55,1.64-1.37v-.55l1.1-.82v-.55l.55-.28v-.54l.55-.28.27-1.1.55-.27.27-1.37h.28l.27-1.1h.28l.54-2.74C1494.66,231.55,1494.19,224.3,1494.19,218.11Zm-15.63-17.82h-.27v2.19l-1.37,4.94h-.28V208h-.27v.55l-.55.28-.27,1.09-1.1.83v.54l-.82.55v.28h-.55l-.82,1.09-1.1.28v.27l-1.64.55v.27l-3.29.55v.28l-6.58-.28v-.27h-.83v-.28H1458v-.27l-1.64-.55v-.27h-.55c-2.51-1.66-4.65-5.14-5.76-8.23v-1.09h-.27V203h-.28v-2.19a13.23,13.23,0,0,1-.27-5.21h.27v-1.92h.28c.18-1.1.36-2.19.55-3.29h.27v-.55h.27v-.82h.28v-.55h.27c.09-.37.19-.73.28-1.1l.55-.27v-.55l.54-.27v-.55l1.65-1.37.55-.82h.55l.27-.55h.55l.27-.55h.55v-.28h.55v-.27h.82v-.27h.82v-.28h.83v-.27h1.91v-.28c8.61-.07,12.8,3.92,15.36,9.87.18,1.1.36,2.2.55,3.29S1479,198.59,1478.56,200.29Z"/><path class="cls-1" d="M1803.43,167.39h16.72v31.8c0,5.56-.32,12,1.92,15.35l1.1.82.82,1.1c1.75,1.24,4.54,1.54,7.13,1.92h.27v-.27h2.2v-.28l1.91-.27v-.28l1.1-.27v-.27h.55l.27-.55h.55l.55-.83.82-.27.28-.82.82-.55.82-2.47h.28v-.55h.27v-.82c1.8-4.52,1.65-10.91,1.64-17.27V167.39h16.45V231H1844v-7.13h-.27a11.7,11.7,0,0,1-2.19,2.2l-.55.82h-.28v.55l-.82.27c-.36.46-.73.92-1.1,1.37h-.54l-.28.55-1.09.27-.28.55-1.37.28V231h-.55v.28h-.82a23.92,23.92,0,0,1-15.08.54h-1.1v-.27l-1.64-.27V231h-.55v-.27l-2.47-.83v-.27l-.82-.27-.27-.55h-.55l-.82-1.1H1810l-.82-1.37-1.37-1.1v-.54l-.83-.55-.27-1.1-.55-.27-.27-1.1h-.28l-.27-1.1h-.28l-.54-2.46h-.28l-.27-2.2h-.28v-2.19c-.84-3-.27-8.49-.27-12.06Z"/><path class="cls-1" d="M2006,167.39h16.73V231H2006Z"/><path class="cls-1" d="M1500,169h17.54c.23.31,0,0,.28.28a13.18,13.18,0,0,0,1.37,4.11c.27,1.19.55,2.38.82,3.56h.27v.83h.28v.82h.27v.82h.28v.82h.27l1.37,4.94c1.7,4.24,3,9.19,4.66,13.43.18.82.37,1.65.55,2.47h.27v1.1h.28V203h.27v.82h.28l.27,1.92h.28l.27,1.92h.27v1.1h.28v1.09h.27c.09.55.18,1.1.28,1.65h.27v-.28h.27c.19-1.19.37-2.37.55-3.56h.28v-1.1h.27V205.5h.27v-1.1h.28v-.82h.27c.09-.73.19-1.47.28-2.2h.27v-.82h.28v-.82h.27v-.82h.27v-1.1h.28V197h.27v-.83h.28v-.82h.27v-.82h.27c.28-1.19.55-2.38.83-3.56h.27v-1.1h.28v-.82h.27v-.83h.27v-.82h.28v-.82h.27c.28-1.19.55-2.38.82-3.56h.28c.36-1.56.73-3.11,1.1-4.67h.27q1.37-4.65,2.74-9.32h17A8.94,8.94,0,0,1,1560,171v.83h-.28v.82h-.27v.82h-.28v.82h-.27v.83h-.28v.82h-.27v.82h-.27v.82h-.28v.82h-.27v.83h-.28l-.27,1.64h-.27v.82h-.28v.83h-.27v.82h-.28v.82h-.27v.82h-.27c-.19.83-.37,1.65-.55,2.47h-.28V188h-.27c-.09.55-.18,1.1-.28,1.64h-.27c-.91,3-1.83,6-2.74,9-3.64,9.1-6.24,19.15-9.87,28.24-.46,1.64-.91,3.29-1.37,4.93-3,7.51-5.08,15.4-11.52,19.47-4.66,2.94-14,2.49-21.65,2.47V240.31c4.35.12,9.47.38,12.06-1.37l.82-1.1,1.1-.82c.18-.55.36-1.09.55-1.64h.27v-1.1c1.31-4.2-.79-9.51-1.92-12.34-.18-.82-.36-1.64-.55-2.46-3.28-8.21-6.09-16.92-9.59-24.95-.09-.55-.18-1.1-.28-1.65h-.27v-.54h-.27c-.1-.55-.19-1.1-.28-1.65h-.27v-.55h-.28l-.27-1.64h-.28V188h-.27l-.27-1.64h-.28v-.55H1506c-.09-.46-.18-.92-.28-1.37h-.27l-.27-1.65h-.28v-.55h-.27c-.09-.55-.19-1.09-.28-1.64h-.27V180h-.27c-.1-.55-.19-1.1-.28-1.65h-.27v-.54H1503l-.27-1.65A38.35,38.35,0,0,1,1500,169Z"/></svg>