<svg id="Layer_1" data-name="Layer 1" xmlns="http://www.w3.org/2000/svg" viewBox="0 0 600 600"><defs><style>.cls-1{fill:#231f20;}</style></defs><path class="cls-1" d="M292.13,27.4c2.8-7.31,12-7.31,19.44-7.31H313V10s-28.89.64-37.73.64c-9.1,0-36.1-.64-36.1-.64V20.09h1.38c7.41,0,16.64,0,19.43,7.3,2.32,6.27,2.32,24,2.32,31.57v64.4c0,7.58,0,25.29-2.31,31.55-2.8,7.3-12,7.3-19.44,7.3h-1.38V172.3s23.35-1,36.14-1c14.72,0,37.69,1,37.69,1V162.21h-1.38c-7.41,0-16.64,0-19.43-7.28-2.32-6.28-2.32-24-2.32-31.57V59c0-7.58,0-25.3,2.31-31.56"/><path class="cls-1" d="M334.86,10.17v42.1h10l.05-1.33c.91-27.39,11.39-28.54,35-28.54.81,0,1.62,0,2.41,0,5.88,0,11.41-.07,13.59,2.1A4.08,4.08,0,0,1,397,27.53V138.19c0,16.42-2.3,23.21-25.43,24.17l-1.32,0v10s27-1,42.56-1c11.9,0,38.49,1,38.49,1v-10l-1.32,0c-23.13-1-25.42-7.75-25.42-24.17V27.53a3.69,3.69,0,0,1,1.06-2.75c2.66-2.61,10-2.51,15.91-2.42,1.12,0,2.22,0,3.26,0,23.09,0,30.53,6.67,31.87,28.58l.08,1.29h9.94V10.17s-58.26.38-75.92.38-75.92-.38-75.92-.38"/><path class="cls-1" d="M216.72,162.22c-11.64-1.82-15.13-3.14-22.79-12L146,95.22c25.24-3.29,40.8-20,40.8-44.07,0-15.68-6.06-27-18-33.63-9.08-5-21.69-7.5-38.58-7.5-5.06.13-17.22.55-30.62.55-13.9,0-42.76-.57-42.76-.57V20.08h2c7.65,0,16.27,0,18.55,7.26,2.1,6.29,2.1,24,2.1,29.84v66.18c0,7.3,0,18.39-1,26A30.86,30.86,0,0,1,77.39,155c-2.34,7.24-11.67,7.24-19.17,7.24H56.85v10.08s22.47-1,37.48-1c12.92,0,35.38,1,35.38,1V162.21h-2c-7.53,0-16.06,0-18.55-7.25a30.92,30.92,0,0,1-1.13-5.62c-1-7.52-1-18.33-1-24.22V98.07c9,.07,9.74,1,14.36,6.59q1.27,1.55,3,3.5l40,49.63,11.76,14.5s12.89-.54,19.16-.54c9.11,0,22.59.56,22.59.56v-9.9ZM107.06,87s0-58.6,0-58.94c0-2.35-.1-5.55,1.85-6.45,1.35-.59,14.39-.12,15.11-.12,20.56,0,32.35,12,32.35,33,0,15.28-4.06,24-13.17,28.44-8.49,4.1-36.12,4.07-36.12,4.07"/><rect class="cls-1" x="56.71" y="217" width="486.58" height="2.48"/><path class="cls-1" d="M105.3,303.12H94.55v25.14H80.89V263.15h28.6a28.66,28.66,0,0,1,9.91,1.58,18.9,18.9,0,0,1,7.12,4.52,20.69,20.69,0,0,1,4.28,6.27,19.69,19.69,0,0,1,1.55,7.84,19.37,19.37,0,0,1-3.4,11.51,18.76,18.76,0,0,1-9.54,6.71l8.16,13.34,8.15,13.34h-15.3l-7.57-12.56ZM94.55,292.38h13.66c3.46,0,6.11-.8,7.88-2.31a8.26,8.26,0,0,0,2.69-6.61,8.17,8.17,0,0,0-2.73-6.64c-1.78-1.47-4.38-2.19-7.66-2.19H94.55v17.75Z"/><path class="cls-1" d="M135.41,305a24.9,24.9,0,0,1,6.78-17.56,25.39,25.39,0,0,1,35.26,0,26.16,26.16,0,0,1,0,35.12,25.41,25.41,0,0,1-35.26,0A24.92,24.92,0,0,1,135.41,305m36.25,0c0-4.55-1.08-8.38-3.09-11.07a11.21,11.21,0,0,0-17.54,0C149,296.57,148,300.4,148,305S149,313.3,151,316a11.27,11.27,0,0,0,17.54,0c2-2.67,3.09-6.47,3.09-11"/><path class="cls-1" d="M187.65,305c0-7,2.28-13.14,6.34-17.56a22.36,22.36,0,0,1,17-7.12c6.06,0,10.95,1.75,14.53,4.76a20,20,0,0,1,6.69,12.36H220.08a9.16,9.16,0,0,0-2.88-5.13,8.45,8.45,0,0,0-5.69-2.07,9.94,9.94,0,0,0-8.44,4c-1.89,2.56-2.85,6.25-2.85,10.76s.89,8.1,2.72,10.69a10.77,10.77,0,0,0,14.65,2.08,9.18,9.18,0,0,0,3.12-5.94h11.93a18.8,18.8,0,0,1-6.15,12.64c-3.59,3.22-8.64,5.2-14.89,5.2-7.37,0-13.36-2.68-17.5-7.11A25.36,25.36,0,0,1,187.65,305"/><path class="cls-1" d="M250.37,287.65h.28a17.18,17.18,0,0,1,5.65-5.54,15.65,15.65,0,0,1,7.92-1.84,15.38,15.38,0,0,1,11.67,4.92,18.37,18.37,0,0,1,4.44,12.57v30.5H268V299.58a9,9,0,0,0-2.11-6.16,7.79,7.79,0,0,0-6-2.4,8.9,8.9,0,0,0-6.79,3,11.51,11.51,0,0,0-2.69,7.76v26.5H238V263.14h12.38v24.51Z"/><path class="cls-1" d="M285.68,304.86a25.59,25.59,0,0,1,6.4-17.49,22.1,22.1,0,0,1,16.64-7.1c7.51,0,13.27,2.87,17.15,7.82s5.89,12,5.89,20.31H297.89a14.3,14.3,0,0,0,3.67,8.53,11.13,11.13,0,0,0,8.25,3.13,10.29,10.29,0,0,0,5.81-1.53,8.66,8.66,0,0,0,3.21-4.2H331a18.46,18.46,0,0,1-6.7,10.76,23,23,0,0,1-14.43,4.53c-7.74,0-13.8-2.71-17.92-7.15s-6.3-10.65-6.3-17.61m12.39-5h20.76a11.07,11.07,0,0,0-3-7.23,9.44,9.44,0,0,0-6.94-2.79,10.08,10.08,0,0,0-7.46,2.72,13.27,13.27,0,0,0-3.37,7.3"/><path class="cls-1" d="M334.56,313.14H346a8.48,8.48,0,0,0,3.33,5.89,11.6,11.6,0,0,0,6.88,1.85,11.81,11.81,0,0,0,6.32-1.45,4.5,4.5,0,0,0,2.23-3.92c0-2.23-1.48-3.46-3.76-4.29a65.76,65.76,0,0,0-8.53-1.9c-4.19-.82-8.33-1.8-11.43-3.86s-5.15-5.16-5.15-10.26A13.16,13.16,0,0,1,341.45,284c3.42-2.47,8.18-3.68,13.51-3.68,6.15,0,10.92,1.52,14.28,4.22A15.88,15.88,0,0,1,375,295.75h-11.2a7,7,0,0,0-2.74-5.29,10.65,10.65,0,0,0-6.28-1.54,11,11,0,0,0-5.81,1.33,4.36,4.36,0,0,0-2.2,3.86c0,2,1.55,3.1,3.92,3.86s5.6,1.2,8.92,1.88c3.92.82,8,1.77,11.18,3.89s5.3,5.4,5.3,10.87a13.27,13.27,0,0,1-5.46,11c-3.46,2.58-8.38,4-14.21,4-6.78,0-12.06-1.63-15.74-4.51a16.14,16.14,0,0,1-6.11-12"/><path class="cls-1" d="M378,281.54h6.47V267h12.11v14.57h8v8.2h-8v24.77a4.58,4.58,0,0,0,1.3,3.62,4.92,4.92,0,0,0,3.33,1c.78,0,1.69,0,2.41,0l1.24-.05v9.11s-.7.05-2,.09-3.26.09-5.72.09a15,15,0,0,1-8.58-2.29c-2.42-1.69-4.07-4.49-4.07-8.91V289.74H378v-8.2Z"/><path class="cls-1" d="M408.2,304.86a25.63,25.63,0,0,1,6.39-17.49,22.1,22.1,0,0,1,16.64-7.1c7.51,0,13.27,2.87,17.15,7.82s5.88,12,5.88,20.31H420.4a14.3,14.3,0,0,0,3.67,8.53,11.13,11.13,0,0,0,8.25,3.13,10.32,10.32,0,0,0,5.81-1.53,8.53,8.53,0,0,0,3.2-4.2h12.21a18.42,18.42,0,0,1-6.71,10.76,22.94,22.94,0,0,1-14.42,4.53c-7.73,0-13.79-2.71-17.91-7.15s-6.3-10.65-6.3-17.61m12.38-5h20.75a11,11,0,0,0-3-7.23,9.46,9.46,0,0,0-6.94-2.79,10.11,10.11,0,0,0-7.47,2.72,13.33,13.33,0,0,0-3.36,7.3"/><path class="cls-1" d="M471.91,289h.27a17.47,17.47,0,0,1,4.74-6,11,11,0,0,1,6.74-2,16,16,0,0,1,1.69.07,5.7,5.7,0,0,1,1.23.29V292.2h-.28c-4.05-.41-7.54.46-10,2.65s-3.92,5.73-3.92,10.64v22.77H460V281.55h11.93V289Z"/><polygon class="cls-1" points="80.98 349.94 87.59 349.94 94.19 349.94 94.19 382.5 94.19 415.06 87.59 415.06 80.98 415.06 80.98 382.5 80.98 349.94"/><path class="cls-1" d="M115.39,374.71h.28a16.49,16.49,0,0,1,5.72-5.7,16.16,16.16,0,0,1,8.12-1.95A15.36,15.36,0,0,1,141.18,372a18.34,18.34,0,0,1,4.44,12.57v30.5H133.24V386.36a8.94,8.94,0,0,0-2.11-6.15,7.78,7.78,0,0,0-6-2.4,8.93,8.93,0,0,0-6.79,3,11.55,11.55,0,0,0-2.68,7.77v26.49H103.28V368.34h12.11v6.37Z"/><path class="cls-1" d="M150.34,399.94h11.47a8.47,8.47,0,0,0,3.32,5.88,11.58,11.58,0,0,0,6.88,1.86,11.87,11.87,0,0,0,6.33-1.45,4.51,4.51,0,0,0,2.23-3.92c0-2.23-1.48-3.46-3.76-4.3a66.14,66.14,0,0,0-8.53-1.9c-4.19-.82-8.34-1.79-11.43-3.85s-5.15-5.17-5.15-10.26a13.19,13.19,0,0,1,5.53-11.26c3.42-2.47,8.17-3.68,13.51-3.68,6.14,0,10.92,1.53,14.28,4.23a15.92,15.92,0,0,1,5.75,11.25h-11.2a7,7,0,0,0-2.74-5.29,10.75,10.75,0,0,0-6.28-1.54,11,11,0,0,0-5.81,1.34,4.36,4.36,0,0,0-2.2,3.85c0,2,1.55,3.1,3.92,3.86s5.6,1.2,8.92,1.88c3.91.82,8,1.79,11.18,3.9s5.31,5.39,5.31,10.86a13.29,13.29,0,0,1-5.47,11c-3.46,2.58-8.38,4-14.21,4-6.79,0-12.06-1.64-15.74-4.52a16.11,16.11,0,0,1-6.11-12"/><path class="cls-1" d="M193.75,368.33h6.46V353.76h12.12v14.57h8v8.2h-8V401.3a4.57,4.57,0,0,0,1.3,3.62,4.89,4.89,0,0,0,3.34,1c.78,0,1.69,0,2.4,0l1.24,0V415s-.7.05-2,.1-3.25.08-5.72.08a15.07,15.07,0,0,1-8.58-2.28c-2.41-1.7-4.08-4.5-4.08-8.91V376.53h-6.46v-8.2Z"/><path class="cls-1" d="M226.7,349.94h12.38v11.11H226.7V349.94Zm0,18.39h12.38v46.73H226.7V368.33Z"/><path class="cls-1" d="M244.36,368.33h6.46V353.76h12.11v14.57h8v8.2h-8V401.3a4.57,4.57,0,0,0,1.3,3.62,4.9,4.9,0,0,0,3.35,1c.77,0,1.68,0,2.4,0l1.24,0V415s-.71.05-2,.1-3.26.08-5.71.08a15.08,15.08,0,0,1-8.59-2.28c-2.41-1.7-4.07-4.5-4.07-8.91V376.53h-6.46v-8.2Z"/><path class="cls-1" d="M306.81,415.06v-5.47h-.27a16.93,16.93,0,0,1-5.43,5,16.31,16.31,0,0,1-8,1.76c-5.19,0-9.24-1.66-12-4.6s-4.22-7.15-4.22-12.25V368.33h12.29v29.06c0,2.73.62,4.85,1.89,6.28s3.21,2.19,5.85,2.19a8.81,8.81,0,0,0,6.88-3,11.45,11.45,0,0,0,2.51-7.61v-27h12.38v46.73H306.81Z"/><path class="cls-1" d="M324,368.33h6.46V353.76h12.11v14.57h8v8.2h-8V401.3a4.57,4.57,0,0,0,1.3,3.62,4.92,4.92,0,0,0,3.35,1c.77,0,1.68,0,2.4,0l1.25,0V415s-.72.05-2,.1-3.26.08-5.71.08a15.08,15.08,0,0,1-8.59-2.28c-2.41-1.7-4.07-4.5-4.07-8.91V376.53H324v-8.2Z"/><path class="cls-1" d="M354.22,391.65a25.59,25.59,0,0,1,6.39-17.48,22.11,22.11,0,0,1,16.64-7.11c7.51,0,13.27,2.88,17.15,7.82s5.89,12,5.89,20.32H366.42a14.36,14.36,0,0,0,3.67,8.53,11.13,11.13,0,0,0,8.25,3.13,10.21,10.21,0,0,0,5.81-1.54,8.56,8.56,0,0,0,3.21-4.2h12.2a18.43,18.43,0,0,1-6.7,10.76,23,23,0,0,1-14.43,4.54c-7.73,0-13.79-2.71-17.91-7.16s-6.3-10.64-6.3-17.61m12.38-5h20.76a11.11,11.11,0,0,0-3-7.23,9.48,9.48,0,0,0-6.94-2.78,10.1,10.1,0,0,0-7.47,2.71,13.36,13.36,0,0,0-3.36,7.3"/><path class="cls-1" d="M419,391.74a24.92,24.92,0,0,1,6.78-17.56,25.4,25.4,0,0,1,35.27,0,26.16,26.16,0,0,1,0,35.12,25.4,25.4,0,0,1-35.27,0A24.92,24.92,0,0,1,419,391.74m36.24,0c0-4.55-1.06-8.38-3.08-11.06a11.19,11.19,0,0,0-17.54,0c-2,2.68-3.05,6.51-3.05,11.06s1.05,8.36,3.05,11a11.27,11.27,0,0,0,17.54,0c2-2.66,3.08-6.47,3.08-11"/><path class="cls-1" d="M469.89,368.33h6.37v-4.18c0-5.69,2.22-9.53,5.92-11.8s8.89-3,14.85-2.32v9.56c-2.91-.13-5,0-6.37.73s-2,2.14-2,4.55v3.46H497v8.57h-8.37v38.16h-12.4V376.9h-6.37v-8.57Z"/><polygon class="cls-1" points="80.98 436.73 107.16 436.73 133.35 436.73 133.35 442.28 133.35 447.84 123.56 447.84 113.77 447.84 113.77 474.84 113.77 501.85 107.16 501.85 100.56 501.85 100.56 474.84 100.56 447.84 90.77 447.84 80.98 447.84 80.98 442.28 80.98 436.73"/><path class="cls-1" d="M126.22,478.45a25.62,25.62,0,0,1,6.4-17.49,22.11,22.11,0,0,1,16.64-7.11c7.51,0,13.27,2.88,17.15,7.82s5.89,12,5.89,20.32H138.42a14.48,14.48,0,0,0,3.68,8.53,11.15,11.15,0,0,0,8.25,3.13,10.21,10.21,0,0,0,5.81-1.54,8.62,8.62,0,0,0,3.2-4.19h12.21a18.37,18.37,0,0,1-6.71,10.75,22.93,22.93,0,0,1-14.42,4.54c-7.74,0-13.79-2.71-17.91-7.16s-6.31-10.63-6.31-17.6m12.39-5h20.75a11.05,11.05,0,0,0-3-7.22,9.5,9.5,0,0,0-6.95-2.79,10.1,10.1,0,0,0-7.47,2.72,13.3,13.3,0,0,0-3.36,7.29"/><path class="cls-1" d="M175.73,478.53c0-7,2.28-13.14,6.34-17.56a22.41,22.41,0,0,1,17-7.12c6.06,0,10.95,1.76,14.53,4.77A20,20,0,0,1,220.27,471H208.16a9.19,9.19,0,0,0-2.88-5.14,8.52,8.52,0,0,0-5.69-2.06,9.94,9.94,0,0,0-8.44,4c-1.89,2.55-2.85,6.25-2.85,10.75s.89,8.11,2.72,10.7a10.77,10.77,0,0,0,14.65,2.08,9.21,9.21,0,0,0,3.12-5.95h11.93A18.85,18.85,0,0,1,214.57,498c-3.59,3.22-8.64,5.2-14.89,5.2-7.37,0-13.36-2.68-17.5-7.11s-6.45-10.6-6.45-17.57"/><path class="cls-1" d="M238.45,461.23h.28a17.38,17.38,0,0,1,5.65-5.54,15.75,15.75,0,0,1,7.92-1.84A15.4,15.4,0,0,1,264,458.77a18.34,18.34,0,0,1,4.44,12.57v30.5H256V473.16a9,9,0,0,0-2.11-6.16,7.81,7.81,0,0,0-6-2.4,8.92,8.92,0,0,0-6.79,3,11.48,11.48,0,0,0-2.69,7.75v26.5H226.07V436.73h12.38v24.5Z"/><path class="cls-1" d="M288.15,461.5h.27a16.57,16.57,0,0,1,5.72-5.7,16.05,16.05,0,0,1,8.12-1.95,15.42,15.42,0,0,1,11.68,4.92,18.39,18.39,0,0,1,4.44,12.57v30.5H306V473.16a9,9,0,0,0-2.1-6.16,7.84,7.84,0,0,0-6-2.4,8.9,8.9,0,0,0-6.78,3,11.43,11.43,0,0,0-2.69,7.75v26.5H276V455.13h12.12v6.37Z"/><path class="cls-1" d="M323.73,478.53A24.91,24.91,0,0,1,330.5,461a25.4,25.4,0,0,1,35.27,0,26.17,26.17,0,0,1,0,35.13,25.43,25.43,0,0,1-35.27,0,24.94,24.94,0,0,1-6.77-17.57m36.24,0c0-4.55-1.07-8.37-3.08-11.06a11.2,11.2,0,0,0-17.55,0c-2,2.69-3.06,6.51-3.06,11.06s1.06,8.36,3.06,11a11.28,11.28,0,0,0,17.55,0c2-2.66,3.08-6.46,3.08-11"/><polygon class="cls-1" points="378.43 436.73 384.62 436.73 390.81 436.73 390.81 469.29 390.81 501.85 384.62 501.85 378.43 501.85 378.43 469.29 378.43 436.73"/><path class="cls-1" d="M396.73,478.53A24.91,24.91,0,0,1,403.5,461a25.39,25.39,0,0,1,35.26,0,26.14,26.14,0,0,1,0,35.13,25.41,25.41,0,0,1-35.26,0,24.94,24.94,0,0,1-6.77-17.57m36.24,0c0-4.55-1.07-8.37-3.09-11.06a11.19,11.19,0,0,0-17.54,0c-2,2.69-3.06,6.51-3.06,11.06s1.06,8.36,3.06,11a11.27,11.27,0,0,0,17.54,0c2-2.66,3.09-6.46,3.09-11"/><path class="cls-1" d="M450,503.21h12.29a6.88,6.88,0,0,0,2.92,3.69,12.11,12.11,0,0,0,6.47,1.5c3.5,0,6.1-.84,7.81-2.48s2.56-4.08,2.56-7.26v-5.1h-.27a16.3,16.3,0,0,1-4.91,3.9,16,16,0,0,1-7.29,1.57,20.22,20.22,0,0,1-14.18-5.87c-3.85-3.81-6.41-9.39-6.41-16.45s2.1-12.68,5.67-16.66a19.14,19.14,0,0,1,14.55-6.2,17,17,0,0,1,7.6,1.63,14.43,14.43,0,0,1,5.34,4.57h.18v-4.92h11.92v43.16a21.76,21.76,0,0,1-1.48,8.37,16.08,16.08,0,0,1-4.07,5.84,18.31,18.31,0,0,1-7.29,4,32.67,32.67,0,0,1-9.56,1.28c-6.37,0-11.51-1.37-15.23-3.86A15,15,0,0,1,450,503.21m32.7-26.77a14.23,14.23,0,0,0-2.76-8.89,10.22,10.22,0,0,0-8.35-3.76,9.54,9.54,0,0,0-7.6,3.43c-1.84,2.21-2.88,5.39-2.88,9.31s1,7.1,2.89,9.26a9.76,9.76,0,0,0,7.68,3.3c3.9,0,6.66-1.43,8.44-3.73a14.47,14.47,0,0,0,2.58-8.92"/><path class="cls-1" d="M503.21,507.4h4.37c2.47,0,4.19-.64,5.31-1.76a6.27,6.27,0,0,0,1.62-4.61,16.82,16.82,0,0,0-.78-4.62c-.56-2-1.45-4.49-2.77-8.05l-6.28-16.61-6.29-16.62h13l3.45,10.52,3.46,10.51c.73,2.14,1.48,4.7,2,6.71s1,3.5,1,3.5h.19s.32-1.48.82-3.5,1.18-4.57,1.91-6.71l3.28-10.51,3.27-10.52h12.49l-8.16,24L527,503c-1.77,5.2-3.53,8.72-6,11s-5.72,3.16-10.46,3.16h-7.29V507.4Z"/><path class="cls-1" d="M77.62,565.32a24.91,24.91,0,0,1,6.77-17.56A24.06,24.06,0,0,1,102,540.64a24.06,24.06,0,0,1,17.63,7.12,26.14,26.14,0,0,1,0,35.13A24.09,24.09,0,0,1,102,590a24.09,24.09,0,0,1-17.63-7.11,24.94,24.94,0,0,1-6.77-17.57m36.24,0c0-4.55-1.07-8.37-3.09-11.06a11.19,11.19,0,0,0-17.54,0c-2,2.69-3,6.51-3,11.06s1,8.36,3,11a11.27,11.27,0,0,0,17.54,0c2-2.66,3.09-6.46,3.09-11"/><path class="cls-1" d="M128.49,541.92h6.38v-4.19c0-5.69,2.21-9.54,5.91-11.8s8.89-2.95,14.85-2.31v9.55c-2.91-.13-5,0-6.38.74s-2,2.14-2,4.55v3.46h8.38v8.55h-8.38v38.17H134.87V550.47h-6.38v-8.55Z"/><path class="cls-1" d="M177.55,523.52H203a26.41,26.41,0,0,1,20.82,9.42c5,5.91,7.77,14.22,7.77,23.82a39.48,39.48,0,0,1-2.62,14.61,27.44,27.44,0,0,1-7.76,11,25.67,25.67,0,0,1-8.39,4.65,34.23,34.23,0,0,1-10.91,1.63H177.55V523.52ZM201,577.25c6.19,0,10.49-1.88,13.25-5.4s4-8.62,4-15.09-1.41-12-4.22-15.82-7-6.12-12.63-6.12H190.76v42.43H201Z"/><path class="cls-1" d="M267.22,588.63v-5.46H267a16.72,16.72,0,0,1-5.43,5,16.31,16.31,0,0,1-8,1.76c-5.19,0-9.24-1.67-12-4.6s-4.21-7.14-4.21-12.25V541.92h12.29V571c0,2.73.62,4.85,1.89,6.29s3.22,2.18,5.85,2.18a8.78,8.78,0,0,0,6.88-3,11.42,11.42,0,0,0,2.51-7.6v-27h12.37v46.71H267.22Z"/><path class="cls-1" d="M299.25,582.8h-.18v5.83H287.14V523.52h12.39v24.05h.26a15.08,15.08,0,0,1,5-4.93,15.4,15.4,0,0,1,8-2,18.28,18.28,0,0,1,14.46,6.88c3.57,4.35,5.67,10.52,5.67,17.8,0,7.56-2,13.73-5.48,18A17.83,17.83,0,0,1,313.19,590a17.32,17.32,0,0,1-8.4-2,14.69,14.69,0,0,1-5.54-5.24m21.13-17.48c0-4.32-.87-8-2.6-10.57a8.92,8.92,0,0,0-7.79-4.09c-3.91,0-6.59,1.57-8.3,4.23s-2.44,6.38-2.44,10.7,1.07,7.79,3,10.22a10,10,0,0,0,8.19,3.81,8.46,8.46,0,0,0,7.35-3.77c1.69-2.45,2.58-6,2.58-10.53"/><path class="cls-1" d="M366.61,583.44h-.18a12.79,12.79,0,0,1-4.76,4.48,19,19,0,0,1-9,1.8c-4.79,0-8.86-1.24-11.74-3.66s-4.56-6-4.56-10.63c0-5.14,2.09-8.54,5.48-10.83s8.08-3.46,13.27-4.2a42,42,0,0,0,8.56-1.71c1.85-.74,2.74-1.79,2.74-3.56a4.81,4.81,0,0,0-2-4,9.79,9.79,0,0,0-5.86-1.51c-2.92,0-5.08.52-6.56,1.6a6.39,6.39,0,0,0-2.46,5h-11a14.78,14.78,0,0,1,5.08-10.78c3.28-2.82,8.22-4.62,15.05-4.62,7,0,11.94,1.57,15.09,4.51s4.58,7.25,4.58,12.7v23.78a18,18,0,0,0,.4,4.25,3.93,3.93,0,0,0,1.23,2.21v.45H368.07a5.92,5.92,0,0,1-.9-2.14,26.71,26.71,0,0,1-.56-3m.09-11.29v-7a17.66,17.66,0,0,1-4,1.57c-1.51.43-3.12.8-4.67,1.16-3.24.73-5.65,1.45-7.25,2.55a5.24,5.24,0,0,0-2.4,4.74,5.31,5.31,0,0,0,2,4.6,8.91,8.91,0,0,0,5.28,1.32,12,12,0,0,0,8.18-2.76,8.25,8.25,0,0,0,2.84-6.17"/><path class="cls-1" d="M386.16,523.52h12.38v11.11H386.16V523.52Zm0,18.4h12.38v46.72H386.16V541.92Z"/></svg>