<svg id="Layer_1" data-name="Layer 1" xmlns="http://www.w3.org/2000/svg" viewBox="0 0 667.91 253.75"><defs><style>.cls-1{fill:#ee7425;fill-rule:evenodd;}</style></defs><path class="cls-1" d="M250.11,238.4c-.71-.66-1.62-.22-2.75-.55v-.28h-1.64l-11.52-2.46v-.28l-2.46-.55V234h-.55v-.28h-.82v-.27l-1.65-.55v-.27h-.55v-.28l-1.64-.54c-.09-.19-.18-.37-.28-.55h-.54V231l-.83-.27-.27-.55h-.55l-.27-.55-.83-.27-.82-1.1h-.55l-3-3.29L215,221.67c-2.31-3.21-5.08-5.84-7.4-9L206,211.25v-.54l-1.92-1.65v-.55l-1.65-1.37v-.55L200.48,205v-.55L198.84,203v-.55l-1.92-1.64v-.55l-1.64-1.37v-.55l-1.92-1.65v-.54l-1.65-1.37v-.55l-1.92-1.65v-.55l-1.64-1.37v-.54l-1.92-1.65V188l-1.65-1.37V186l-1.91-1.64v-.55L181,182.47v-.55l-1.92-1.64v-.55h-.27l-.55-.83-.82-.54v-.55l-1.92-1.65v-.54h-.28l-.55-.83-.82-.55v-.54L172,172.05v-.55l-1.64-1.37v-.55l-1.92-1.64v-.55L166.76,166v-.55l-1.91-1.64v-.55l-1.65-1.37v-.55l-1.92-1.65v-.54l-1.64-1.37v-.55L158,155.88v-.55l-1.92-1.65v-.54l-1.64-1.38v-.54l-1.92-1.65V149h-.28l-.54-.82-.83-.55v-.55l-1.92-1.64v-.55l-.82-.55-.55-.82h-.27V143l-1.92-1.64v-.55l-1.64-1.37v-.55l-1.92-1.65v-.54l-1.65-1.37c-.57-.8-.43-1.09-1.37-1.65v-.55a24.07,24.07,0,0,0,6.58-1.09l2.47-.28v-.27h1.09v-.28H150v-.27h1.1v-.28h1.09v-.27h.83v-.27h.82v-.28l3.56-.82v-.27H158v-.28l1.65-.27v-.28h.54v-.27H161v-.27l1.09-.28v-.27h.83v-.28l1.64-.55v-.27h.55v-.27h.55v-.28h.55v-.27h.54v-.28h.55v-.27h.55v-.27h.55v-.28H169l.27-.55,1.65-.55v-.27l.82-.27.27-.55,1.1-.28v-.27l.82-.27.28-.55h.54l.55-.83h.55c.18-.27.37-.54.55-.82h.55l.55-.82H178c.19-.27.37-.55.55-.82l.83-.28,1.91-2.19h.55L184,112l1.09-.82v-.55l1.92-1.64v-.55l1.1-.82v-.55l.82-.55V106l.82-.55v-.55l.55-.27c.09-.27.18-.55.28-.82h.27v-.55l.55-.27v-.55l.55-.28.27-.82h.27l.55-1.64.55-.28v-.55h.28v-.54h.27v-.55h.27v-.55h.28v-.55H195v-.55h.28l.54-1.64h.28l.27-1.37h.28v-.55h.27v-.82h.27v-.55h.28l1.37-4.94h.27V85.15h.28v-.83h.27V83.23h.28l.27-2.47h.27V79.39h.28V77.74H201V76.1h.28V73.91h.27V71.16c.62-2.19.61-11.51,0-13.7l-.27-4.94H201l-.27-3.29h-.28V47.86h-.27V46.77h-.27v-1.1h-.28v-1.1h-.27V43.48h-.28v-.83h-.27v-.82h-.27V41h-.28L198,39.36h-.28v-.54h-.27V38h-.28v-.55h-.27v-.82h-.27c-.19-.55-.37-1.09-.55-1.64h-.28v-.55h-.27v-.55h-.27v-.55H195v-.55h-.27v-.54h-.28v-.55h-.27v-.55l-.55-.28-.27-1.09h-.28l-.27-.82-.55-.28v-.55l-.55-.27V27.3l-.82-.55V26.2l-.82-.54v-.55L188.7,24v-.55l-3.57-3.29c-.45-.55-.91-1.09-1.37-1.64h-.55l-1.09-1.37h-.55c-.09-.19-.18-.37-.28-.55H181l-.27-.55h-.55l-.28-.55h-.54c-.19-.27-.37-.55-.55-.82h-.55l-.28-.55-.82-.27v-.28l-1.09-.27c-.1-.18-.19-.37-.28-.55l-1.1-.27-.27-.55h-.55v-.28h-.55V11.4h-.54v-.27h-.55v-.28h-.55v-.27h-.55V10.3h-.55V10h-.55V9.76l-1.64-.55V8.93h-.82V8.66H167V8.38h-.82V8.11h-.55V7.84h-.82V7.56h-.55V7.29L152.23,3.72,139.62,1.53h-2.46V1.26h-2.47V1H131.4V.71h-4.11V.43h-7.4c-3.47-1-8.58,0-12.34,0L79,1,22.56.71C20.35.09,16.75.43,14.06.43L.08.16V15.79H.36v.27c10.06,0,19.46-.42,25.49,3.56h.55l.27.55h.55l.83,1.1h.54v.27l.55.28v.55l1.1.82.27,1.1.55.27c.09.46.18.91.28,1.37h.27v.55h.27c.1.55.19,1.1.28,1.64h.27v1.1h.28v1.1H33V32h.27v1.65h.28c.18,2.28.36,4.57.55,6.85h.27c.09,1.74.18,3.47.28,5.21v3h.27v6.86h.27v136.8c0,2,.18,4.71-.27,6.3v7.13h-.27v4.66h-.28v3.29h-.27v2.47H33.8v2.47c-.38,1.35-.69,3.35-1.09,4.66v1.37h-.28v.82h-.27c-.09.64-.18,1.28-.28,1.92h-.27l-.27,1.1h-.28l-.27,1.09-.55.28v.54c-5.06,7.31-17.63,7.48-30.16,7.41v11.51c0,1.16-.31,3.45.28,4.11v.28L2,253.47H7.48v-.27h7.41c1.84-.52,4.83-.22,7.12-.28h1.1v-.27h7.68l5.21-.27c2.85,0,6.68.39,9-.28H64c2,0,4.71-.17,6.3.28H82.05v.27h9v.27h8v.28h7.4v.27h6v.28h.83v-15.9c-9.47,0-18.29.23-24.4-3l-1.65-.55-.27-.55h-.55c-.18-.27-.37-.54-.55-.82h-.55v-.27l-1.09-.82v-.55l-1.1-.83v-.54l-.55-.28-.82-2.46H81.5v-.55h-.27v-1.1H81v-.82h-.28v-1.37h-.27V222h-.28v-1.37h-.27v-1.92h-.27v-2.2h-.28v-2.74H79v-3.29h-.28l-.27-11c-.49-1.75-.28-4.66-.28-6.86V137.78c4.6,0,8.83.08,12.07,1.37h.82v.28h.55v.27h.55l.27.55,1.1.27.82,1.1h.55l.27.55,1.37,1.1v.54l1.92,1.65V146l1.37,1.09v.55l1.37,1.1v.55l1.37,1.09v.55L104,152v.55l1.38,1.09v.55l.54.28v.27l.55.27v.55l1.1.82V157l1.1.83v.54l1.09.83v.54l1.1.83v.55l1.09.82v.55l1.1.82v.55l.55.27v.28l.55.27v.55l1.37,1.09v.55c.36.28.73.55,1.1.82v.55l1.09.83v.54l1.1.83V171l1.1.83v.55l1.09.82v.55l1.1.82v.55l1.09.82v.55l.55.27V177l.55.27v.55l1.1.82v.55l1.09.82v.55l1.1.82v.55l1.1.82v.55l1.09.82v.55l1.1.82V186l.55.28v.27l.55.28v.54l1.09.83v.54l.55.28v.27l.55.28v.55l1.1.82v.55l1.09.82v.55c.37.27.74.54,1.1.82v.55l1.1.82v.55l1.09.82V197l1.1.82v.55l1.37,1.1V200l1.1.83v.55l1.09.82v.55c.37.27.74.54,1.1.82v.55l1.1.82v.55l1.09.82v.55l1.1.82v.55l1.1.82v.55l1.09.82V211l1.1.82v.55l1.1.82v.55l1.09.82v.55l.55.28v.27l.55.27v.55l1.1.83v.54l.55.28v.27l.54.28v.54l1.1.83v.55l1.1.82V222l1.09.82v.55l1.1.82v.55l1.1.82v.55l1.09.82v.55l1.1.82v.55l1.1.82v.55l1.37,1.1v.55l1.09.82v.55l1.1.82v.55l1.1.82v.55l1.09.82v.55l1.1.82v.55l1.1.82V240l1.37,1.1v.54l1.09.83v.55l1.1.82v.55l1.1.82v.55l.55.27v.28l.54.27v.55l1.1.82v.55l1.37,1.1v.54l1.1.83v.54l.82.55a12.79,12.79,0,0,1,1.1,1.65c1.4-.14,3.16-.28,4.93-.28h3v-.27h8.22v-.28H232v.28l11.79.27c1.31,0,4.17-.39,4.93.28a4.43,4.43,0,0,0,1.65-.28v-11C250.38,241.35,250.69,239.05,250.11,238.4ZM138.25,112h-.55l-.27.55-1.64.55c-.1.18-.19.37-.28.55H135v.27l-1.09.28v.27H133v.27h-.54V115h-.83v.27h-.82v.28H130v.27h-1.1v.28h-1.09v.27h-1.1v.27h-1.1V117h-1.37c-1.41.43-3.51.67-4.93,1.09l-6.58.55v.28h-2.47v.27H107v.27h-3.56v.28l-6.58.27h-3c-1.84.52-4.82.22-7.13.28H85.62v.27H78.21V22.64c.37-1,.74-2,1.1-3h.28c.27-.36.54-.73.82-1.09,3.83-.69,9.07-.55,13.71-.55,2.2,0,5.1-.22,6.85.27h7.68l9.32,1.1v.27h1.37v.28l2.19.27v.28l1.92.27V21h.82v.27h.82v.27h.83v.28l1.37.27v.28l1.09.27v.27h.83v.28l1.64.55V24h.55v.28l1.1.27.27.55,1.1.27.27.55h.55l.27.55h.55l.28.55h.54c.19.27.37.55.55.82h.55l.82,1.1h.55l1.92,2.19,2.74,2.47v.54l1.1.83v.55l.82.54v.55l.55.28.27.82h.28v.55l.55.27.27.82h.27v.55h.28v.55h.27V41h.28v.55h.27v.55h.27v.54h.28v.55h.27c.19.55.37,1.1.55,1.65h.28v.82h.27v.55h.27l.28,1.64h.27v.82h.28v.83H152v.82h.27c.1.73.19,1.46.28,2.19h.27v1.1h.28v1.1h.27v1.37h.28v1.64h.27v1.92h.27v2.47h.28V66c.29,1,.66,7.1.27,8.49h-.27v3c-.09,1.46-.18,2.92-.28,4.39h-.27v1.92c-.4,1.39-.69,3.33-1.1,4.66v1.37l-2.19,6.85h-.27v.55H150V98h-.27c-.19.55-.37,1.1-.55,1.65h-.28l-.27,1.09-.55.28-.27,1.09-.55.28V103H147c-.1.27-.19.54-.28.82l-.55.27v.55l-1.09.82V106l-2.74,2.47c-.37.46-.74.91-1.1,1.37h-.55l-.55.82h-.55l-.54.82h-.55C138.44,111.65,138.34,111.83,138.25,112Z"/><path class="cls-1" d="M283.28.16l19.19.55c3.52,0,9.45-.54,12.33.27h4.12c3.57,0,9.68-.54,12.61.28H337L350.72,1,379.5.71c1.9-.54,5-.28,7.41-.28l11-.27v15.9c-9.17,0-18.15-.14-24.4,2.74v.27h-.55l-.27.55-1.1.28-.27.55h-.55l-.55.82h-.55l-1.09,1.37-.55.27v.55l-.82.55v.55l-.55.27v.55h-.28l-.27,1.1h-.27v.82h-.28v.55h-.27v1.09H365v.83h-.27v1.37h-.27v1.37h-.28v1.37h-.27c-.19,2.19-.37,4.39-.55,6.58h-.28v3h-.27v3.84s-.23,0-.27.55v4.93c-.63,2.25-.21,5.79-.28,8.5v1.1H362V179.45c0,3.58-.57,9.07.27,12.06v9.32h.28v5.49h.27v4.11h.27v3h.28v2.46h.27v2.2h.28V220l1.92,7.4h.27V228h.27v.54l.55.28v.55l.55.27v.55l.82.55v.55h.28l.82,1.09h.55l.82,1.1h.55l.27.55,1.65.55c6.26,3.33,15,3.31,24.67,3.28v15.91c-1.44-.07-2.89-.28-4.66-.28h-3.56v-.27h-7.41v-.28H374v-.27h-9.59v-.28h-2.75c-3.09,0-7.27.46-9.87-.27H334a27.69,27.69,0,0,0-6,.27H315.9v.28h-9.32v.27h-8.22v.28H291v.27h-3.56l-4.11.28V237.84c7.76,0,15.49.1,21.11-1.91h1.09v-.28H306v-.27h.82v-.28l1.1-.27v-.27l1.1-.28.27-.55h.55l.27-.55h.55l.82-1.09h.55l.28-.55h.27V231l1.1-.82v-.55l.55-.27.27-1.1h.27c.19-.55.37-1.1.55-1.65h.28c.55-2.28,1.09-4.56,1.64-6.85.09-1.37.18-2.74.28-4.11h.27v-2.47h.27v-3h.28V206c.42-1.49-.19-4.09.27-5.75.62-2.22.26-5.81.28-8.5v-1.65h.27V75.55c0-3.51.55-8.86-.27-11.79V53.62h-.28V47.86h-.27V43.75h-.28v-3h-.27V38h-.27V36.07h-.28V34.15H317V32.51c-.67-2.24-1.17-4.73-2.2-6.58v-.55l-.54-.27L314,24l-.82-.55v-.55l-1.37-1.09-.28-.55H311l-.55-.82h-.55l-.27-.55-1.1-.28-.28-.55h-.54V18.8c-6.29-2.89-15.2-2.77-24.4-2.74Z"/><path class="cls-1" d="M431.87.43l46.6.28h15.35c2.45,0,5.7-.28,7.68.27h50.72L667.91.43v65.8H652.28L652,59.65h-.28V56.91h-.27v-2.2h-.28V53.07h-.27V51.42h-.27V49.78h-.28v-1.1h-.27V47.31c-.82-2.56-1.65-5.12-2.47-7.67h-.27c-.19-.55-.37-1.1-.55-1.65h-.28v-.55h-.27v-.55H646c-.19-.54-.37-1.09-.55-1.64-7.9-12.49-22.21-15.63-42.5-15.63h-6.58v-.27c-1.27-.36-6.21,0-7.12.27H584v.28h-2.47v.27h-1.64v.28h-1.37v.27h-.83V21h-1.09v.28h-.55v.27l-1.37.28-.28.54h-.55v.28a2.21,2.21,0,0,1-1.09.55,2.25,2.25,0,0,1-.55,1.09H572c-.1.46-.19.92-.28,1.37h-.27v171.9c0,12.85.09,22.65,5.48,30.15l2.19,1.92.83,1.1h.54l.28.55h.55l.27.54.82.28v.27l1.1.28v.27H584v.27l1.64.55V234l1.65.27v.28h.55v.27l1.92.27v.28h.82v.27h1.09v.28h1.37v.27l6.31.82v.28h2.19v.27h3v.27l8.22.28v15.63h-7.12v-.28h-1.1c-2.3-.05-5.28.25-7.13-.27H589v-.28h-9.59v-.27h-2.74c-2.85,0-6.68.39-9-.28H544l-57,1.38V238.12l8.22-.28v-.27h3v-.27h2.19V237h1.92v-.27H504v-.28h1.64v-.27h1.1v-.27h1.37v-.28h1.1v-.27H510v-.28l1.92-.27v-.27h.55v-.28l1.64-.27v-.28l1.65-.55v-.27h.54v-.27l1.1-.28v-.27l.82-.28.28-.54H519l.28-.55h.55l2.19-2.47,1.1-.82c6.67-9.44,5.21-27.27,5.21-43.32V29.77c0-2.44.15-4.85-.83-6.31l-1.09-.82-.28-.55h-.55l-.27-.55h-.55v-.27H524V21h-.55v-.27l-2.19-.27v-.28h-1.65c-2.66-.76-6.46-.55-9.87-.55H493c-13.72,0-25.46,1.66-33.45,7.41l-1.09,1.37L456,30.59v.55l-.82.55v.54l-.55.28v.55l-.55.27v.55h-.27v.55h-.28V35h-.27v.54H453v.55h-.28c-.18.55-.36,1.1-.55,1.65h-.27l-1.65,4.93v1.1H450v1.09h-.27v1.1h-.28v1.37h-.27v1.37h-.28V50.6h-.27v1.92h-.28v2.19H448V58h-.27c-.09,2.74-.19,5.49-.28,8.23H431.87Z"/></svg>